<?xml version="1.0" encoding="UTF-8" standalone="no"?>
<!-- Created with Inkscape (http://www.inkscape.org/) -->

<svg
   xmlns:dc="http://purl.org/dc/elements/1.1/"
   xmlns:cc="http://creativecommons.org/ns#"
   xmlns:rdf="http://www.w3.org/1999/02/22-rdf-syntax-ns#"
   xmlns:svg="http://www.w3.org/2000/svg"
   xmlns="http://www.w3.org/2000/svg"
   xmlns:sodipodi="http://sodipodi.sourceforge.net/DTD/sodipodi-0.dtd"
   xmlns:inkscape="http://www.inkscape.org/namespaces/inkscape"
   width="562.31726"
   height="608.6629"
   id="svg7953"
   version="1.1"
   inkscape:version="0.48.3.1 r9886"
   sodipodi:docname="robot1_illu.svg">
  <sodipodi:namedview
     id="base"
     pagecolor="#ffffff"
     bordercolor="#666666"
     borderopacity="1.0"
     inkscape:pageopacity="0.0"
     inkscape:pageshadow="2"
     inkscape:zoom="0.98994949"
     inkscape:cx="283.78491"
     inkscape:cy="353.45978"
     inkscape:document-units="px"
     inkscape:current-layer="layer1"
     showgrid="false"
     inkscape:window-width="1920"
     inkscape:window-height="1023"
     inkscape:window-x="-4"
     inkscape:window-y="0"
     inkscape:window-maximized="1"
     fit-margin-top="10"
     fit-margin-left="10"
     fit-margin-right="10"
     fit-margin-bottom="10" />
  <defs
     id="defs7955">
    <marker
       inkscape:stockid="Arrow1Mend"
       orient="auto"
       refY="0"
       refX="0"
       id="Arrow1Mend"
       style="overflow:visible">
      <path
         id="path3806"
         d="M 0,0 5,-5 -12.5,0 5,5 0,0 z"
         style="fill-rule:evenodd;stroke:#000000;stroke-width:1pt"
         transform="matrix(-0.4,0,0,-0.4,-4,0)"
         inkscape:connector-curvature="0" />
    </marker>
    <marker
       inkscape:stockid="Arrow1Mstart"
       orient="auto"
       refY="0"
       refX="0"
       id="Arrow1Mstart"
       style="overflow:visible">
      <path
         id="path3803"
         d="M 0,0 5,-5 -12.5,0 5,5 0,0 z"
         style="fill-rule:evenodd;stroke:#000000;stroke-width:1pt"
         transform="matrix(0.4,0,0,0.4,4,0)"
         inkscape:connector-curvature="0" />
    </marker>
    <marker
       inkscape:stockid="Arrow1Lstart"
       orient="auto"
       refY="0"
       refX="0"
       id="Arrow1Lstart"
       style="overflow:visible">
      <path
         id="path3797"
         d="M 0,0 5,-5 -12.5,0 5,5 0,0 z"
         style="fill-rule:evenodd;stroke:#000000;stroke-width:1pt"
         transform="matrix(0.8,0,0,0.8,10,0)"
         inkscape:connector-curvature="0" />
    </marker>
  </defs>
  <metadata
     id="metadata7958">
    <rdf:RDF>
      <cc:Work
         rdf:about="">
        <dc:format>image/svg+xml</dc:format>
        <dc:type
           rdf:resource="http://purl.org/dc/dcmitype/StillImage" />
        <dc:title></dc:title>
      </cc:Work>
    </rdf:RDF>
  </metadata>
  <g
     inkscape:label="Layer 1"
     inkscape:groupmode="layer"
     id="layer1"
     transform="translate(-149.50563,-424.84036)">
    <path
       style="fill:none;stroke:#000000;stroke-width:3;stroke-miterlimit:4;stroke-opacity:1"
       d="m 618.78679,745.91263 c 0,57.0242 -42.78747,88.94778 -120.49022,88.94778 -77.70272,0 -140.69325,-33.94389 -140.69325,-75.8158 0,-41.87193 53.89916,-60.66353 140.69325,-75.81582 76.54506,-13.36304 120.49022,20.81191 120.49022,62.68384 z"
       id="path7961"
       inkscape:connector-curvature="0"
       sodipodi:nodetypes="sssss" />
    <g
       id="g10832"
       transform="matrix(0.45066572,0,0,0.45066572,312.32486,536.19302)">
      <path
         id="path9510"
         d="m 386.2527,630.07527 53.03301,-37.5"
         style="stroke:#000000;stroke-width:4.43787909;stroke-linecap:round;marker-start:url(#Arrow1Mstart)"
         inkscape:label="Edge4-8"
         inkscape:connector-curvature="0" />
      <path
         id="path9516"
         d="m 492.31872,630.07527 -53.03301,-37.5"
         style="stroke:#000000;stroke-width:4.43787909;stroke-linecap:round;marker-start:url(#Arrow1Mstart)"
         inkscape:label="Edge6-8"
         inkscape:connector-curvature="0" />
      <path
         id="path9518"
         d="m 439.28571,539.54226 0,53.03301"
         style="stroke:#000000;stroke-width:4.43787909;stroke-linecap:round;marker-start:url(#Arrow1Mstart)"
         inkscape:label="Edge7-8"
         inkscape:connector-curvature="0" />
    </g>
    <g
       transform="matrix(0.45066572,0,0,0.45066572,361.16932,455.25826)"
       id="g10837">
      <path
         inkscape:connector-curvature="0"
         inkscape:label="Edge4-8"
         style="stroke:#000000;stroke-width:4.43787909;stroke-linecap:round;marker-start:url(#Arrow1Mstart)"
         d="m 386.2527,630.07527 53.03301,-37.5"
         id="path10839" />
      <path
         inkscape:connector-curvature="0"
         inkscape:label="Edge6-8"
         style="stroke:#000000;stroke-width:4.43787909;stroke-linecap:round;marker-start:url(#Arrow1Mstart)"
         d="m 492.31872,630.07527 -53.03301,-37.5"
         id="path10841" />
      <path
         inkscape:connector-curvature="0"
         inkscape:label="Edge7-8"
         style="stroke:#000000;stroke-width:4.43787909;stroke-linecap:round;marker-start:url(#Arrow1Mstart)"
         d="m 439.28571,539.54226 0,53.03301"
         id="path10843" />
    </g>
    <g
       transform="matrix(0.45066572,0,0,0.45066572,205.54455,477.65493)"
       id="g10845">
      <path
         inkscape:connector-curvature="0"
         inkscape:label="Edge4-8"
         style="stroke:#000000;stroke-width:4.43787909;stroke-linecap:round;marker-start:url(#Arrow1Mstart)"
         d="m 386.2527,630.07527 53.03301,-37.5"
         id="path10847" />
      <path
         inkscape:connector-curvature="0"
         inkscape:label="Edge6-8"
         style="stroke:#000000;stroke-width:4.43787909;stroke-linecap:round;marker-start:url(#Arrow1Mstart)"
         d="m 492.31872,630.07527 -53.03301,-37.5"
         id="path10849" />
      <path
         inkscape:connector-curvature="0"
         inkscape:label="Edge7-8"
         style="stroke:#000000;stroke-width:4.43787909;stroke-linecap:round;marker-start:url(#Arrow1Mstart)"
         d="m 439.28571,539.54226 0,53.03301"
         id="path10851" />
    </g>
    <path
       transform="matrix(0.80851112,-0.78319552,0.66678196,0.68833467,-376.09992,444.51425)"
       d="m 371.42857,589.80878 c 0,37.87095 -33.25885,68.57142 -74.28572,68.57142 -41.02686,0 -74.28571,-30.70047 -74.28571,-68.57142 0,-37.87096 33.25885,-68.57143 74.28571,-68.57143 41.02687,0 74.28572,30.70047 74.28572,68.57143 z"
       sodipodi:ry="68.571426"
       sodipodi:rx="74.285713"
       sodipodi:cy="589.80878"
       sodipodi:cx="297.14285"
       id="path10853"
       style="fill:none;stroke:#000000;stroke-width:2.8884275;stroke-miterlimit:4;stroke-opacity:1;stroke-dasharray:none"
       sodipodi:type="arc" />
    <path
       style="fill:none;stroke:#000000;stroke-width:3;stroke-miterlimit:4;stroke-opacity:1"
       d="m 698.22169,653.21286 c -8.87787,21.61394 -43.34143,26.21099 -76.97651,10.26778 -33.63508,-15.94319 -53.70475,-46.38928 -44.82688,-68.00323 8.87788,-21.61395 43.34144,-26.21101 76.97652,-10.2678 33.63508,15.9432 53.70475,46.3893 44.82687,68.00325 z"
       id="path10855"
       inkscape:connector-curvature="0" />
    <path
       style="fill:none;stroke:#000000;stroke-width:3.00000024;stroke-miterlimit:4;stroke-opacity:1"
       d="m 312.7526,476.80083 c 0,22.3457 -31.5584,28.33863 -70.48766,28.33863 -38.92925,0 -70.48765,-5.99293 -70.48765,-28.33863 0,-22.34571 31.5584,-40.46047 70.48765,-40.46047 38.92926,0 70.48766,18.11476 70.48766,40.46047 z"
       id="path10857"
       inkscape:connector-curvature="0"
       sodipodi:nodetypes="sssss" />
    <g
       id="g10859"
       transform="matrix(0.45066572,0,0,0.45066572,47.706943,387.85649)">
      <path
         id="path10861"
         d="m 386.2527,630.07527 53.03301,-37.5"
         style="stroke:#000000;stroke-width:4.43787909;stroke-linecap:round;marker-start:url(#Arrow1Mstart)"
         inkscape:label="Edge4-8"
         inkscape:connector-curvature="0" />
      <path
         id="path10863"
         d="m 492.31872,630.07527 -53.03301,-37.5"
         style="stroke:#000000;stroke-width:4.43787909;stroke-linecap:round;marker-start:url(#Arrow1Mstart)"
         inkscape:label="Edge6-8"
         inkscape:connector-curvature="0" />
      <path
         id="path10865"
         d="m 439.28571,539.54226 0,53.03301"
         style="stroke:#000000;stroke-width:4.43787909;stroke-linecap:round;marker-start:url(#Arrow1Mstart)"
         inkscape:label="Edge7-8"
         inkscape:connector-curvature="0" />
    </g>
    <g
       id="g10867"
       transform="matrix(0.45066572,0,0,0.45066572,44.676485,319.16612)">
      <path
         id="path10869"
         d="m 386.2527,630.07527 53.03301,-37.5"
         style="stroke:#000000;stroke-width:4.43787909;stroke-linecap:round;marker-start:url(#Arrow1Mstart)"
         inkscape:label="Edge4-8"
         inkscape:connector-curvature="0" />
      <path
         id="path10871"
         d="m 492.31872,630.07527 -53.03301,-37.5"
         style="stroke:#000000;stroke-width:4.43787909;stroke-linecap:round;marker-start:url(#Arrow1Mstart)"
         inkscape:label="Edge6-8"
         inkscape:connector-curvature="0" />
      <path
         id="path10873"
         d="m 439.28571,539.54226 0,53.03301"
         style="stroke:#000000;stroke-width:4.43787909;stroke-linecap:round;marker-start:url(#Arrow1Mstart)"
         inkscape:label="Edge7-8"
         inkscape:connector-curvature="0" />
    </g>
    <g
       id="g10875"
       transform="matrix(0.45066572,0,0,0.45066572,443.68674,363.61283)">
      <path
         id="path10877"
         d="m 386.2527,630.07527 53.03301,-37.5"
         style="stroke:#000000;stroke-width:4.43787909;stroke-linecap:round;marker-start:url(#Arrow1Mstart)"
         inkscape:label="Edge4-8"
         inkscape:connector-curvature="0" />
      <path
         id="path10879"
         d="m 492.31872,630.07527 -53.03301,-37.5"
         style="stroke:#000000;stroke-width:4.43787909;stroke-linecap:round;marker-start:url(#Arrow1Mstart)"
         inkscape:label="Edge6-8"
         inkscape:connector-curvature="0" />
      <path
         id="path10881"
         d="m 439.28571,539.54226 0,53.03301"
         style="stroke:#000000;stroke-width:4.43787909;stroke-linecap:round;marker-start:url(#Arrow1Mstart)"
         inkscape:label="Edge7-8"
         inkscape:connector-curvature="0" />
    </g>
    <g
       transform="matrix(0.45066572,0,0,0.45066572,44.676485,211.52285)"
       id="g10883">
      <path
         inkscape:connector-curvature="0"
         inkscape:label="Edge4-8"
         style="stroke:#000000;stroke-width:4.43787909;stroke-linecap:round;marker-start:url(#Arrow1Mstart)"
         d="m 386.2527,630.07527 53.03301,-37.5"
         id="path10885" />
      <path
         inkscape:connector-curvature="0"
         inkscape:label="Edge6-8"
         style="stroke:#000000;stroke-width:4.43787909;stroke-linecap:round;marker-start:url(#Arrow1Mstart)"
         d="m 492.31872,630.07527 -53.03301,-37.5"
         id="path10887" />
      <path
         inkscape:connector-curvature="0"
         inkscape:label="Edge7-8"
         style="stroke:#000000;stroke-width:4.43787909;stroke-linecap:round;marker-start:url(#Arrow1Mstart)"
         d="m 439.28571,539.54226 0,53.03301"
         id="path10889" />
    </g>
    <path
       style="fill:none;stroke:#000000;stroke-width:1px;stroke-linecap:butt;stroke-linejoin:miter;stroke-opacity:1;marker-start:url(#Arrow1Mstart);marker-end:none"
       d="m 402.85895,754.38248 c 39.90719,62.05185 102.15156,47.7451 102.15156,47.7451"
       id="path17542"
       inkscape:connector-curvature="0"
       sodipodi:nodetypes="cc" />
    <path
       style="fill:none;stroke:#000000;stroke-width:1px;stroke-linecap:butt;stroke-linejoin:miter;stroke-opacity:1;marker-start:none;marker-end:url(#Arrow1Mend)"
       d="m 517.63742,802.12758 c 0,0 49.24111,-4.72335 44.9554,-71.50907"
       id="path10891"
       inkscape:connector-curvature="0"
       sodipodi:nodetypes="cc" />
    <g
       transform="matrix(0.45066572,0,0,0.45066572,351.81934,722.02327)"
       id="g11267">
      <path
         inkscape:connector-curvature="0"
         inkscape:label="Edge4-8"
         style="stroke:#000000;stroke-width:4.43787909;stroke-linecap:round;marker-start:url(#Arrow1Mstart)"
         d="m 386.2527,630.07527 53.03301,-37.5"
         id="path11269" />
      <path
         inkscape:connector-curvature="0"
         inkscape:label="Edge6-8"
         style="stroke:#000000;stroke-width:4.43787909;stroke-linecap:round;marker-start:url(#Arrow1Mstart)"
         d="m 492.31872,630.07527 -53.03301,-37.5"
         id="path11271" />
      <path
         inkscape:connector-curvature="0"
         inkscape:label="Edge7-8"
         style="stroke:#000000;stroke-width:4.43787909;stroke-linecap:round;marker-start:url(#Arrow1Mstart)"
         d="m 439.28571,539.54226 0,53.03301"
         id="path11273" />
    </g>
    <path
       transform="matrix(1.7307692,0,0,0.95833334,-3.8672923,391.05555)"
       d="m 371.42857,589.80878 c 0,37.87095 -33.25885,68.57142 -74.28572,68.57142 -41.02686,0 -74.28571,-30.70047 -74.28571,-68.57142 0,-37.87096 33.25885,-68.57143 74.28571,-68.57143 41.02687,0 74.28572,30.70047 74.28572,68.57143 z"
       sodipodi:ry="68.571426"
       sodipodi:rx="74.285713"
       sodipodi:cy="589.80878"
       sodipodi:cx="297.14285"
       id="path11275"
       style="fill:none;stroke:#000000;stroke-width:2.32939625;stroke-miterlimit:4;stroke-opacity:1;stroke-dasharray:none"
       sodipodi:type="arc" />
    <g
       id="g11277"
       transform="matrix(0.45066572,0,0,0.45066572,266.10506,670.5947)">
      <path
         id="path11279"
         d="m 386.2527,630.07527 53.03301,-37.5"
         style="stroke:#000000;stroke-width:4.43787909;stroke-linecap:round;marker-start:url(#Arrow1Mstart)"
         inkscape:label="Edge4-8"
         inkscape:connector-curvature="0" />
      <path
         id="path11281"
         d="m 492.31872,630.07527 -53.03301,-37.5"
         style="stroke:#000000;stroke-width:4.43787909;stroke-linecap:round;marker-start:url(#Arrow1Mstart)"
         inkscape:label="Edge6-8"
         inkscape:connector-curvature="0" />
      <path
         id="path11283"
         d="m 439.28571,539.54226 0,53.03301"
         style="stroke:#000000;stroke-width:4.43787909;stroke-linecap:round;marker-start:url(#Arrow1Mstart)"
         inkscape:label="Edge7-8"
         inkscape:connector-curvature="0" />
    </g>
    <g
       id="g11338"
       transform="matrix(0.5,0,0,0.5,409.94118,802.1971)">
      <g
         id="content"
         transform="matrix(1.0629921,0,0,-1.0629921,-186.02362,789.27165)"
         xml:space="preserve"
         stroke-miterlimit="10.433"
         font-style="normal"
         font-variant="normal"
         font-weight="normal"
         font-stretch="normal"
         font-size-adjust="none"
         letter-spacing="normal"
         word-spacing="normal"
         style="font-style:normal;font-variant:normal;font-weight:normal;font-stretch:normal;letter-spacing:normal;word-spacing:normal;text-anchor:start;fill:none;stroke:#000000;stroke-width:2;stroke-linecap:butt;stroke-linejoin:miter;stroke-miterlimit:10.43299961;stroke-opacity:1;stroke-dasharray:none;stroke-dashoffset:0"><path
           d="m 463.49,410.09 -0.05,-0.18 -0.04,-0.17 -0.05,-0.16 -0.04,-0.15 -0.04,-0.15 -0.05,-0.13 -0.05,-0.13 -0.05,-0.12 -0.05,-0.11 -0.06,-0.11 -0.07,-0.1 -0.07,-0.09 -0.07,-0.09 -0.09,-0.07 -0.09,-0.08 -0.11,-0.06 -0.11,-0.07 -0.13,-0.05 -0.13,-0.05 -0.15,-0.05 -0.16,-0.04 -0.09,-0.02 -0.09,-0.01 -0.09,-0.02 -0.1,-0.02 -0.1,-0.01 -0.1,-0.01 -0.11,-0.01 -0.12,-0.02 -0.11,-0.01 -0.13,-0.01 -0.12,0 -0.13,-0.01 -0.14,-0.01 -0.14,0 -0.14,-0.01 -0.15,0 -0.16,-0.01 -0.16,0 -0.16,0 -0.17,0 -0.18,0 -0.18,0 c -0.85,0 -1.35,0 -1.35,-1 0,-0.55 0.46,-0.55 1.35,-0.55 h 17.78 c 7.87,0 13.75,5.87 13.75,10.76 0,3.58 -2.89,6.47 -7.72,7.02 5.19,0.95 10.42,4.64 10.42,9.38 0,3.68 -3.3,6.87 -9.28,6.87 l -0.69,-1.55 c 4.38,0 5.42,-2.93 5.42,-5.12 0,-4.39 -4.28,-9.13 -10.35,-9.13 h -7.27 l -0.3,-1.09 h 9.41 c 4.78,0 5.73,-3.69 5.73,-5.83 0,-4.94 -4.43,-9.76 -10.31,-9.76 h -6.78 c -0.69,0 -0.8,0 -1.09,0.04 -0.5,0.05 -0.64,0.1 -0.64,0.5 0,0.14 0,0.25 0.25,1.14 l 3.43,13.91 0.3,1.09 3.08,12.36 c 0.45,1.74 0.54,1.89 2.7,1.89 h 6.42 l 0.69,1.55 h -16.73 c -0.94,0 -1.44,0 -1.44,-1 0,-0.55 0.44,-0.55 1.39,-0.55 0.09,0 1.05,0 1.89,-0.09 0.89,-0.11 1.34,-0.16 1.34,-0.8 0,-0.2 -0.04,-0.36 -0.2,-0.95 z"
           id="path11341"
           inkscape:connector-curvature="0"
           style="fill:#000000;stroke-width:0" /><path
           d="m 511.3,409.87 0,0.71 -0.02,0.68 -0.03,0.66 -0.04,0.64 -0.06,0.62 -0.07,0.6 -0.09,0.57 -0.11,0.56 -0.13,0.55 -0.15,0.53 -0.17,0.51 -0.19,0.5 -0.21,0.49 -0.24,0.48 -0.26,0.47 -0.14,0.23 -0.15,0.23 c -1.08,1.61 -3.23,3 -6.03,3 v -0.98 c 1.89,0 3.7,-1.14 4.33,-3.17 0.56,-1.88 0.59,-4.39 0.59,-7.43 0,-2.57 0,-5.15 -0.45,-7.34 -0.7,-3.17 -3.06,-3.94 -4.47,-3.94 h 0 c -1.59,0 -3.72,0.94 -4.42,3.8 -0.49,2.05 -0.49,4.91 -0.49,7.48 0,2.55 0,5.21 0.52,7.11 0.73,2.75 2.97,3.49 4.39,3.49 v 0.98 c -8.08,0 -8.08,-9.51 -8.08,-12.03 0,-2.5 0,-11.81 8.08,-11.81 8.09,0 8.09,9.31 8.09,11.81 z"
           id="path11343"
           inkscape:connector-curvature="0"
           style="fill:#000000;stroke-width:0" /></g>    </g>
    <g
       id="g11457"
       transform="matrix(0.5,0,0,0.5,321.65928,613.11255)">
      <g
         word-spacing="normal"
         letter-spacing="normal"
         font-size-adjust="none"
         font-stretch="normal"
         font-weight="normal"
         font-variant="normal"
         font-style="normal"
         stroke-miterlimit="10.433"
         xml:space="preserve"
         transform="matrix(1.0629921,0,0,-1.0629921,-186.02362,789.27165)"
         id="g11459"
         style="font-style:normal;font-variant:normal;font-weight:normal;font-stretch:normal;letter-spacing:normal;word-spacing:normal;text-anchor:start;fill:none;stroke:#000000;stroke-width:2;stroke-linecap:butt;stroke-linejoin:miter;stroke-miterlimit:10.43299961;stroke-opacity:1;stroke-dasharray:none;stroke-dashoffset:0"><path
           id="path11461"
           d="m 463.49,410.09 -0.05,-0.18 -0.04,-0.17 -0.05,-0.16 -0.04,-0.15 -0.04,-0.15 -0.05,-0.13 -0.05,-0.13 -0.05,-0.12 -0.05,-0.11 -0.06,-0.11 -0.07,-0.1 -0.07,-0.09 -0.07,-0.09 -0.09,-0.07 -0.09,-0.08 -0.11,-0.06 -0.11,-0.07 -0.13,-0.05 -0.13,-0.05 -0.15,-0.05 -0.16,-0.04 -0.09,-0.02 -0.09,-0.01 -0.09,-0.02 -0.1,-0.02 -0.1,-0.01 -0.1,-0.01 -0.11,-0.01 -0.12,-0.02 -0.11,-0.01 -0.13,-0.01 -0.12,0 -0.13,-0.01 -0.14,-0.01 -0.14,0 -0.14,-0.01 -0.15,0 -0.16,-0.01 -0.16,0 -0.16,0 -0.17,0 -0.18,0 -0.18,0 c -0.85,0 -1.35,0 -1.35,-1 0,-0.55 0.46,-0.55 1.35,-0.55 h 17.78 c 7.87,0 13.75,5.87 13.75,10.76 0,3.58 -2.89,6.47 -7.72,7.02 5.19,0.95 10.42,4.64 10.42,9.38 0,3.68 -3.3,6.87 -9.28,6.87 l -0.69,-1.55 c 4.38,0 5.42,-2.93 5.42,-5.12 0,-4.39 -4.28,-9.13 -10.35,-9.13 h -7.27 l -0.3,-1.09 h 9.41 c 4.78,0 5.73,-3.69 5.73,-5.83 0,-4.94 -4.43,-9.76 -10.31,-9.76 h -6.78 c -0.69,0 -0.8,0 -1.09,0.04 -0.5,0.05 -0.64,0.1 -0.64,0.5 0,0.14 0,0.25 0.25,1.14 l 3.43,13.91 0.3,1.09 3.08,12.36 c 0.45,1.74 0.54,1.89 2.7,1.89 h 6.42 l 0.69,1.55 h -16.73 c -0.94,0 -1.44,0 -1.44,-1 0,-0.55 0.44,-0.55 1.39,-0.55 0.09,0 1.05,0 1.89,-0.09 0.89,-0.11 1.34,-0.16 1.34,-0.8 0,-0.2 -0.04,-0.36 -0.2,-0.95 z"
           inkscape:connector-curvature="0"
           style="fill:#000000;stroke-width:0" /><path
           id="path11463"
           d="m 504.99,420.92 0,0.04 0,0.04 0,0.05 0,0.04 0,0.03 0,0.04 0,0.04 0,0.03 0,0.04 -0.01,0.03 0,0.03 0,0.03 0,0.03 -0.01,0.03 0,0.03 0,0.02 -0.01,0.03 0,0.02 -0.01,0.03 0,0.02 -0.01,0.04 -0.02,0.04 -0.02,0.03 -0.02,0.03 -0.02,0.03 -0.02,0.03 -0.03,0.02 -0.03,0.02 -0.03,0.02 -0.04,0.01 -0.04,0.01 -0.05,0.02 -0.02,0 -0.02,0 -0.03,0.01 -0.03,0 -0.02,0.01 -0.03,0 -0.03,0 -0.03,0 -0.03,0 -0.04,0.01 -0.03,0 -0.04,0 -0.03,0 -0.04,0 -0.04,0 -0.04,0 -0.04,0 -0.05,0 -0.04,0 -0.04,0 c -2.24,-2.2 -5.4,-2.23 -6.83,-2.23 v -1.25 c 0.84,0 3.14,0 5.04,0.97 v -17.77 c 0,-1.16 0,-1.61 -3.48,-1.61 h -1.31 v -1.25 c 0.62,0.03 4.9,0.14 6.2,0.14 1.08,0 5.47,-0.11 6.23,-0.14 v 1.25 h -1.32 c -3.49,0 -3.49,0.45 -3.49,1.61 z"
           inkscape:connector-curvature="0"
           style="fill:#000000;stroke-width:0" /></g>    </g>
    <g
       id="g11585"
       transform="matrix(0.5,0,0,0.5,55.273994,472.70135)">
      <g
         id="g11587"
         transform="matrix(1.0629921,0,0,-1.0629921,-186.02362,789.27165)"
         xml:space="preserve"
         stroke-miterlimit="10.433"
         font-style="normal"
         font-variant="normal"
         font-weight="normal"
         font-stretch="normal"
         font-size-adjust="none"
         letter-spacing="normal"
         word-spacing="normal"
         style="font-style:normal;font-variant:normal;font-weight:normal;font-stretch:normal;letter-spacing:normal;word-spacing:normal;text-anchor:start;fill:none;stroke:#000000;stroke-width:2;stroke-linecap:butt;stroke-linejoin:miter;stroke-miterlimit:10.43299961;stroke-opacity:1;stroke-dasharray:none;stroke-dashoffset:0"><path
           d="m 463.49,410.09 -0.05,-0.18 -0.04,-0.17 -0.05,-0.16 -0.04,-0.15 -0.04,-0.15 -0.05,-0.13 -0.05,-0.13 -0.05,-0.12 -0.05,-0.11 -0.06,-0.11 -0.07,-0.1 -0.07,-0.09 -0.07,-0.09 -0.09,-0.07 -0.09,-0.08 -0.11,-0.06 -0.11,-0.07 -0.13,-0.05 -0.13,-0.05 -0.15,-0.05 -0.16,-0.04 -0.09,-0.02 -0.09,-0.01 -0.09,-0.02 -0.1,-0.02 -0.1,-0.01 -0.1,-0.01 -0.11,-0.01 -0.12,-0.02 -0.11,-0.01 -0.13,-0.01 -0.12,0 -0.13,-0.01 -0.14,-0.01 -0.14,0 -0.14,-0.01 -0.15,0 -0.16,-0.01 -0.16,0 -0.16,0 -0.17,0 -0.18,0 -0.18,0 c -0.85,0 -1.35,0 -1.35,-1 0,-0.55 0.46,-0.55 1.35,-0.55 h 17.78 c 7.87,0 13.75,5.87 13.75,10.76 0,3.58 -2.89,6.47 -7.72,7.02 5.19,0.95 10.42,4.64 10.42,9.38 0,3.68 -3.3,6.87 -9.28,6.87 l -0.69,-1.55 c 4.38,0 5.42,-2.93 5.42,-5.12 0,-4.39 -4.28,-9.13 -10.35,-9.13 h -7.27 l -0.3,-1.09 h 9.41 c 4.78,0 5.73,-3.69 5.73,-5.83 0,-4.94 -4.43,-9.76 -10.31,-9.76 h -6.78 c -0.69,0 -0.8,0 -1.09,0.04 -0.5,0.05 -0.64,0.1 -0.64,0.5 0,0.14 0,0.25 0.25,1.14 l 3.43,13.91 0.3,1.09 3.08,12.36 c 0.45,1.74 0.54,1.89 2.7,1.89 h 6.42 l 0.69,1.55 h -16.73 c -0.94,0 -1.44,0 -1.44,-1 0,-0.55 0.44,-0.55 1.39,-0.55 0.09,0 1.05,0 1.89,-0.09 0.89,-0.11 1.34,-0.16 1.34,-0.8 0,-0.2 -0.04,-0.36 -0.2,-0.95 z"
           id="path11589"
           inkscape:connector-curvature="0"
           style="fill:#000000;stroke-width:0" /><path
           d="m 510.91,405.11 h -1.18 c -0.1,-0.77 -0.46,-2.83 -0.91,-3.18 -0.27,-0.2 -2.95,-0.2 -3.44,-0.2 h -6.42 c 3.66,3.23 4.88,4.2 6.97,5.84 2.58,2.07 4.98,4.22 4.98,7.54 0,4.21 -3.68,6.79 -8.15,6.79 -4.31,0 -7.25,-3.03 -7.25,-6.23 0,-1.78 1.5,-1.96 1.86,-1.96 0.83,0 1.84,0.6 1.84,1.85 0,0.62 -0.25,1.84 -2.06,1.84 1.08,2.47 3.45,3.24 5.09,3.24 3.49,0 5.3,-2.71 5.3,-5.53 0,-3.04 -2.16,-5.44 -3.28,-6.69 l -8.39,-8.3 c -0.36,-0.31 -0.36,-0.39 -0.36,-1.36 h 14.36 z"
           id="path11591"
           inkscape:connector-curvature="0"
           style="fill:#000000;stroke-width:0" /></g>    </g>
    <g
       id="g11721"
       transform="matrix(0.5,0,0,0.5,51.31842,287.0193)">
      <g
         word-spacing="normal"
         letter-spacing="normal"
         font-size-adjust="none"
         font-stretch="normal"
         font-weight="normal"
         font-variant="normal"
         font-style="normal"
         stroke-miterlimit="10.433"
         xml:space="preserve"
         transform="matrix(1.0629921,0,0,-1.0629921,-186.02362,789.27165)"
         id="g11723"
         style="font-style:normal;font-variant:normal;font-weight:normal;font-stretch:normal;letter-spacing:normal;word-spacing:normal;text-anchor:start;fill:none;stroke:#000000;stroke-width:2;stroke-linecap:butt;stroke-linejoin:miter;stroke-miterlimit:10.43299961;stroke-opacity:1;stroke-dasharray:none;stroke-dashoffset:0"><path
           id="path11725"
           d="m 463.49,410.09 -0.05,-0.18 -0.04,-0.17 -0.05,-0.16 -0.04,-0.15 -0.04,-0.15 -0.05,-0.13 -0.05,-0.13 -0.05,-0.12 -0.05,-0.11 -0.06,-0.11 -0.07,-0.1 -0.07,-0.09 -0.07,-0.09 -0.09,-0.07 -0.09,-0.08 -0.11,-0.06 -0.11,-0.07 -0.13,-0.05 -0.13,-0.05 -0.15,-0.05 -0.16,-0.04 -0.09,-0.02 -0.09,-0.01 -0.09,-0.02 -0.1,-0.02 -0.1,-0.01 -0.1,-0.01 -0.11,-0.01 -0.12,-0.02 -0.11,-0.01 -0.13,-0.01 -0.12,0 -0.13,-0.01 -0.14,-0.01 -0.14,0 -0.14,-0.01 -0.15,0 -0.16,-0.01 -0.16,0 -0.16,0 -0.17,0 -0.18,0 -0.18,0 c -0.85,0 -1.35,0 -1.35,-1 0,-0.55 0.46,-0.55 1.35,-0.55 h 17.78 c 7.87,0 13.75,5.87 13.75,10.76 0,3.58 -2.89,6.47 -7.72,7.02 5.19,0.95 10.42,4.64 10.42,9.38 0,3.68 -3.3,6.87 -9.28,6.87 l -0.69,-1.55 c 4.38,0 5.42,-2.93 5.42,-5.12 0,-4.39 -4.28,-9.13 -10.35,-9.13 h -7.27 l -0.3,-1.09 h 9.41 c 4.78,0 5.73,-3.69 5.73,-5.83 0,-4.94 -4.43,-9.76 -10.31,-9.76 h -6.78 c -0.69,0 -0.8,0 -1.09,0.04 -0.5,0.05 -0.64,0.1 -0.64,0.5 0,0.14 0,0.25 0.25,1.14 l 3.43,13.91 0.3,1.09 3.08,12.36 c 0.45,1.74 0.54,1.89 2.7,1.89 h 6.42 l 0.69,1.55 h -16.73 c -0.94,0 -1.44,0 -1.44,-1 0,-0.55 0.44,-0.55 1.39,-0.55 0.09,0 1.05,0 1.89,-0.09 0.89,-0.11 1.34,-0.16 1.34,-0.8 0,-0.2 -0.04,-0.36 -0.2,-0.95 z"
           inkscape:connector-curvature="0"
           style="fill:#000000;stroke-width:0" /><path
           id="path11727"
           d="m 502.84,410.4 0.25,0 0.25,-0.02 0.24,-0.03 0.24,-0.04 0.23,-0.05 0.23,-0.06 0.22,-0.07 0.21,-0.08 0.21,-0.1 0.2,-0.1 0.2,-0.12 0.19,-0.12 0.18,-0.14 0.18,-0.15 0.16,-0.16 0.16,-0.17 0.15,-0.18 0.15,-0.19 0.13,-0.2 0.13,-0.22 0.11,-0.22 0.11,-0.24 0.1,-0.24 0.09,-0.26 0.08,-0.27 0.07,-0.28 0.06,-0.29 0.05,-0.3 0.04,-0.31 0.03,-0.32 0.01,-0.33 0.01,-0.35 c 0,-4.33 -2.52,-5.61 -4.53,-5.61 -1.39,0 -4.47,0.38 -5.93,2.44 1.63,0.06 2.02,1.22 2.02,1.95 0,1.11 -0.84,1.91 -1.92,1.91 -0.97,0 -1.95,-0.59 -1.95,-2.02 0,-3.28 3.62,-5.4 7.84,-5.4 4.84,0 8.19,3.25 8.19,6.73 0,2.72 -2.22,5.44 -6.07,6.24 3.66,1.33 4.99,3.93 4.99,6.06 0,2.75 -3.17,4.81 -7.03,4.81 -3.88,0 -6.83,-1.89 -6.83,-4.67 0,-1.19 0.76,-1.84 1.81,-1.84 1.08,0 1.77,0.79 1.77,1.76 0,1.02 -0.69,1.75 -1.77,1.81 1.22,1.55 3.61,1.93 4.91,1.93 1.56,0 3.76,-0.77 3.76,-3.8 0,-1.47 -0.48,-3.06 -1.39,-4.14 -1.15,-1.33 -2.12,-1.41 -3.87,-1.5 -0.88,-0.08 -0.94,-0.08 -1.11,-0.11 -0.08,0 -0.36,-0.06 -0.36,-0.45 0,-0.49 0.31,-0.49 0.91,-0.49 z"
           inkscape:connector-curvature="0"
           style="fill:#000000;stroke-width:0" /></g>    </g>
    <g
       id="g11865"
       transform="matrix(0.5,0,0,0.5,449.45937,438.35616)">
      <g
         id="g11867"
         transform="matrix(1.0629921,0,0,-1.0629921,-186.02362,789.27165)"
         xml:space="preserve"
         stroke-miterlimit="10.433"
         font-style="normal"
         font-variant="normal"
         font-weight="normal"
         font-stretch="normal"
         font-size-adjust="none"
         letter-spacing="normal"
         word-spacing="normal"
         style="font-style:normal;font-variant:normal;font-weight:normal;font-stretch:normal;letter-spacing:normal;word-spacing:normal;text-anchor:start;fill:none;stroke:#000000;stroke-width:2;stroke-linecap:butt;stroke-linejoin:miter;stroke-miterlimit:10.43299961;stroke-opacity:1;stroke-dasharray:none;stroke-dashoffset:0"><path
           d="m 463.49,410.09 -0.05,-0.18 -0.04,-0.17 -0.05,-0.16 -0.04,-0.15 -0.04,-0.15 -0.05,-0.13 -0.05,-0.13 -0.05,-0.12 -0.05,-0.11 -0.06,-0.11 -0.07,-0.1 -0.07,-0.09 -0.07,-0.09 -0.09,-0.07 -0.09,-0.08 -0.11,-0.06 -0.11,-0.07 -0.13,-0.05 -0.13,-0.05 -0.15,-0.05 -0.16,-0.04 -0.09,-0.02 -0.09,-0.01 -0.09,-0.02 -0.1,-0.02 -0.1,-0.01 -0.1,-0.01 -0.11,-0.01 -0.12,-0.02 -0.11,-0.01 -0.13,-0.01 -0.12,0 -0.13,-0.01 -0.14,-0.01 -0.14,0 -0.14,-0.01 -0.15,0 -0.16,-0.01 -0.16,0 -0.16,0 -0.17,0 -0.18,0 -0.18,0 c -0.85,0 -1.35,0 -1.35,-1 0,-0.55 0.46,-0.55 1.35,-0.55 h 17.78 c 7.87,0 13.75,5.87 13.75,10.76 0,3.58 -2.89,6.47 -7.72,7.02 5.19,0.95 10.42,4.64 10.42,9.38 0,3.68 -3.3,6.87 -9.28,6.87 l -0.69,-1.55 c 4.38,0 5.42,-2.93 5.42,-5.12 0,-4.39 -4.28,-9.13 -10.35,-9.13 h -7.27 l -0.3,-1.09 h 9.41 c 4.78,0 5.73,-3.69 5.73,-5.83 0,-4.94 -4.43,-9.76 -10.31,-9.76 h -6.78 c -0.69,0 -0.8,0 -1.09,0.04 -0.5,0.05 -0.64,0.1 -0.64,0.5 0,0.14 0,0.25 0.25,1.14 l 3.43,13.91 0.3,1.09 3.08,12.36 c 0.45,1.74 0.54,1.89 2.7,1.89 h 6.42 l 0.69,1.55 h -16.73 c -0.94,0 -1.44,0 -1.44,-1 0,-0.55 0.44,-0.55 1.39,-0.55 0.09,0 1.05,0 1.89,-0.09 0.89,-0.11 1.34,-0.16 1.34,-0.8 0,-0.2 -0.04,-0.36 -0.2,-0.95 z"
           id="path11869"
           inkscape:connector-curvature="0"
           style="fill:#000000;stroke-width:0" /><path
           d="m 511.76,404.48 v 1.25 h -3.88 v 15.55 c 0,0.72 0,0.97 -0.76,0.97 -0.42,0 -0.57,0 -0.91,-0.49 l -11.53,-16.03 v -1.25 h 10.25 l 0.23,1.25 h -9.2 l 9.2,12.75 v -12.75 l -0.23,-1.25 v -2.86 c 0,-1.19 0,-1.61 -2.83,-1.61 h -0.94 v -1.25 c 1.74,0.06 3.97,0.14 5.22,0.14 1.3,0 3.52,-0.08 5.27,-0.14 v 1.25 h -0.94 c -2.83,0 -2.83,0.42 -2.83,1.61 v 2.86 z"
           id="path11871"
           inkscape:connector-curvature="0"
           style="fill:#000000;stroke-width:0" /></g>    </g>
    <g
       id="g12017"
       transform="matrix(0.5,0,0,0.5,418.84715,543.41203)">
      <g
         word-spacing="normal"
         letter-spacing="normal"
         font-size-adjust="none"
         font-stretch="normal"
         font-weight="normal"
         font-variant="normal"
         font-style="normal"
         stroke-miterlimit="10.433"
         xml:space="preserve"
         transform="matrix(1.0629921,0,0,-1.0629921,-186.02362,789.27165)"
         id="g12019"
         style="font-style:normal;font-variant:normal;font-weight:normal;font-stretch:normal;letter-spacing:normal;word-spacing:normal;text-anchor:start;fill:none;stroke:#000000;stroke-width:2;stroke-linecap:butt;stroke-linejoin:miter;stroke-miterlimit:10.43299961;stroke-opacity:1;stroke-dasharray:none;stroke-dashoffset:0"><path
           id="path12021"
           d="m 482.47,436.59 0.04,0.15 0.04,0.14 0.03,0.14 0.04,0.13 0.03,0.12 0.04,0.12 0.04,0.11 0.04,0.11 0.04,0.1 0.04,0.09 0.05,0.09 0.05,0.08 0.06,0.08 0.06,0.07 0.07,0.07 0.08,0.06 0.08,0.06 0.09,0.05 0.09,0.05 0.11,0.04 0.11,0.04 0.13,0.04 0.13,0.03 0.07,0.01 0.08,0.02 0.07,0.01 0.08,0.01 0.08,0.01 0.09,0.01 0.09,0.01 0.09,0.01 0.09,0.01 0.1,0 0.1,0.01 0.11,0 0.1,0.01 0.11,0 0.12,0 0.12,0 0.12,0 0.13,0 c 0.79,0 1.34,0 1.34,0.96 0,0.43 -0.3,0.59 -0.69,0.59 -1.25,0 -4.28,-0.16 -5.53,-0.16 -1.64,0 -5.69,0.16 -7.33,0.16 -0.45,0 -1.04,0 -1.04,-1 0,-0.55 0.4,-0.55 1.7,-0.55 1.14,0 1.64,0 2.88,-0.09 1.2,-0.16 1.54,-0.31 1.54,-1 0,-0.3 -0.09,-0.66 -0.19,-1.05 l -5.73,-22.87 c -1.2,-4.83 -4.58,-7.47 -7.17,-7.47 -1.3,0 -3.94,0.5 -4.74,3.09 0.14,-0.04 0.5,-0.04 0.6,-0.04 1.94,0 3.23,1.68 3.23,3.18 0,1.6 -1.34,2.08 -2.19,2.08 -0.89,0 -3.34,-0.59 -3.34,-3.98 0,-3.08 2.64,-5.42 6.58,-5.42 4.59,0 9.76,3.28 11.01,8.21 z"
           inkscape:connector-curvature="0"
           style="fill:#000000;stroke-width:0" /><path
           id="path12023"
           d="m 501.56,404.48 v 1.25 h -3.88 v 15.55 c 0,0.72 0,0.97 -0.76,0.97 -0.42,0 -0.56,0 -0.91,-0.49 l -11.53,-16.03 v -1.25 h 10.25 l 0.23,1.25 h -9.2 l 9.2,12.75 v -12.75 l -0.23,-1.25 v -2.86 c 0,-1.19 0,-1.61 -2.83,-1.61 h -0.94 v -1.25 c 1.74,0.06 3.97,0.14 5.22,0.14 1.3,0 3.52,-0.08 5.27,-0.14 v 1.25 h -0.94 c -2.83,0 -2.83,0.42 -2.83,1.61 v 2.86 z"
           inkscape:connector-curvature="0"
           style="fill:#000000;stroke-width:0" /></g>    </g>
    <g
       id="g12345"
       transform="matrix(0.5,0,0,0.5,338.52688,768.67604)">
      <g
         word-spacing="normal"
         letter-spacing="normal"
         font-size-adjust="none"
         font-stretch="normal"
         font-weight="normal"
         font-variant="normal"
         font-style="normal"
         stroke-miterlimit="10.433"
         xml:space="preserve"
         transform="matrix(1.0629921,0,0,-1.0629921,-186.02362,789.27165)"
         id="g12347"
         style="font-style:normal;font-variant:normal;font-weight:normal;font-stretch:normal;letter-spacing:normal;word-spacing:normal;text-anchor:start;fill:none;stroke:#000000;stroke-width:2;stroke-linecap:butt;stroke-linejoin:miter;stroke-miterlimit:10.43299961;stroke-opacity:1;stroke-dasharray:none;stroke-dashoffset:0"><path
           id="path12349"
           d="m 482.47,436.59 0.04,0.15 0.04,0.14 0.03,0.14 0.04,0.13 0.03,0.12 0.04,0.12 0.04,0.11 0.04,0.11 0.04,0.1 0.04,0.09 0.05,0.09 0.05,0.08 0.06,0.08 0.06,0.07 0.07,0.07 0.08,0.06 0.08,0.06 0.09,0.05 0.09,0.05 0.11,0.04 0.11,0.04 0.13,0.04 0.13,0.03 0.07,0.01 0.08,0.02 0.07,0.01 0.08,0.01 0.08,0.01 0.09,0.01 0.09,0.01 0.09,0.01 0.09,0.01 0.1,0 0.1,0.01 0.11,0 0.1,0.01 0.11,0 0.12,0 0.12,0 0.12,0 0.13,0 c 0.79,0 1.34,0 1.34,0.96 0,0.43 -0.3,0.59 -0.69,0.59 -1.25,0 -4.28,-0.16 -5.53,-0.16 -1.64,0 -5.69,0.16 -7.33,0.16 -0.45,0 -1.04,0 -1.04,-1 0,-0.55 0.4,-0.55 1.7,-0.55 1.14,0 1.64,0 2.88,-0.09 1.2,-0.16 1.54,-0.31 1.54,-1 0,-0.3 -0.09,-0.66 -0.19,-1.05 l -5.73,-22.87 c -1.2,-4.83 -4.58,-7.47 -7.17,-7.47 -1.3,0 -3.94,0.5 -4.74,3.09 0.14,-0.04 0.5,-0.04 0.6,-0.04 1.94,0 3.23,1.68 3.23,3.18 0,1.6 -1.34,2.08 -2.19,2.08 -0.89,0 -3.34,-0.59 -3.34,-3.98 0,-3.08 2.64,-5.42 6.58,-5.42 4.59,0 9.76,3.28 11.01,8.21 z"
           inkscape:connector-curvature="0"
           style="fill:#000000;stroke-width:0" /><path
           id="path12351"
           d="m 494.79,420.92 0,0.04 0,0.04 0,0.05 0,0.04 0,0.03 0,0.04 0,0.04 0,0.03 0,0.04 0,0.03 -0.01,0.03 0,0.03 0,0.03 -0.01,0.03 0,0.03 0,0.02 -0.01,0.03 0,0.02 -0.01,0.03 0,0.02 -0.01,0.04 -0.02,0.04 -0.02,0.03 -0.02,0.03 -0.02,0.03 -0.02,0.03 -0.03,0.02 -0.03,0.02 -0.03,0.02 -0.04,0.01 -0.04,0.01 -0.05,0.02 -0.02,0 -0.02,0 -0.03,0.01 -0.03,0 -0.02,0.01 -0.03,0 -0.03,0 -0.03,0 -0.03,0 -0.04,0.01 -0.03,0 -0.04,0 -0.03,0 -0.04,0 -0.04,0 -0.04,0 -0.04,0 -0.04,0 -0.05,0 -0.04,0 c -2.24,-2.2 -5.39,-2.23 -6.83,-2.23 v -1.25 c 0.84,0 3.14,0 5.04,0.97 v -17.77 c 0,-1.16 0,-1.61 -3.48,-1.61 h -1.31 v -1.25 c 0.62,0.03 4.9,0.14 6.2,0.14 1.08,0 5.47,-0.11 6.24,-0.14 v 1.25 h -1.33 c -3.49,0 -3.49,0.45 -3.49,1.61 z"
           inkscape:connector-curvature="0"
           style="fill:#000000;stroke-width:0" /></g>    </g>
    <g
       id="g12521"
       transform="matrix(0.5,0,0,0.5,266.08822,555.53386)">
      <g
         id="g12523"
         transform="matrix(1.0629921,0,0,-1.0629921,-186.02362,789.27165)"
         xml:space="preserve"
         stroke-miterlimit="10.433"
         font-style="normal"
         font-variant="normal"
         font-weight="normal"
         font-stretch="normal"
         font-size-adjust="none"
         letter-spacing="normal"
         word-spacing="normal"
         style="font-style:normal;font-variant:normal;font-weight:normal;font-stretch:normal;letter-spacing:normal;word-spacing:normal;text-anchor:start;fill:none;stroke:#000000;stroke-width:2;stroke-linecap:butt;stroke-linejoin:miter;stroke-miterlimit:10.43299961;stroke-opacity:1;stroke-dasharray:none;stroke-dashoffset:0"><path
           d="m 482.47,436.59 0.04,0.15 0.04,0.14 0.03,0.14 0.04,0.13 0.03,0.12 0.04,0.12 0.04,0.11 0.04,0.11 0.04,0.1 0.04,0.09 0.05,0.09 0.05,0.08 0.06,0.08 0.06,0.07 0.07,0.07 0.08,0.06 0.08,0.06 0.09,0.05 0.09,0.05 0.11,0.04 0.11,0.04 0.13,0.04 0.13,0.03 0.07,0.01 0.08,0.02 0.07,0.01 0.08,0.01 0.08,0.01 0.09,0.01 0.09,0.01 0.09,0.01 0.09,0.01 0.1,0 0.1,0.01 0.11,0 0.1,0.01 0.11,0 0.12,0 0.12,0 0.12,0 0.13,0 c 0.79,0 1.34,0 1.34,0.96 0,0.43 -0.3,0.59 -0.69,0.59 -1.25,0 -4.28,-0.16 -5.53,-0.16 -1.64,0 -5.69,0.16 -7.33,0.16 -0.45,0 -1.04,0 -1.04,-1 0,-0.55 0.4,-0.55 1.7,-0.55 1.14,0 1.64,0 2.88,-0.09 1.2,-0.16 1.54,-0.31 1.54,-1 0,-0.3 -0.09,-0.66 -0.19,-1.05 l -5.73,-22.87 c -1.2,-4.83 -4.58,-7.47 -7.17,-7.47 -1.3,0 -3.94,0.5 -4.74,3.09 0.14,-0.04 0.5,-0.04 0.6,-0.04 1.94,0 3.23,1.68 3.23,3.18 0,1.6 -1.34,2.08 -2.19,2.08 -0.89,0 -3.34,-0.59 -3.34,-3.98 0,-3.08 2.64,-5.42 6.58,-5.42 4.59,0 9.76,3.28 11.01,8.21 z"
           id="path12525"
           inkscape:connector-curvature="0"
           style="fill:#000000;stroke-width:0" /><path
           d="m 500.71,405.11 h -1.18 c -0.1,-0.77 -0.46,-2.83 -0.91,-3.18 -0.26,-0.2 -2.95,-0.2 -3.44,-0.2 h -6.42 c 3.66,3.23 4.88,4.2 6.97,5.84 2.58,2.07 4.98,4.22 4.98,7.54 0,4.21 -3.68,6.79 -8.15,6.79 -4.31,0 -7.25,-3.03 -7.25,-6.23 0,-1.78 1.5,-1.96 1.86,-1.96 0.83,0 1.84,0.6 1.84,1.85 0,0.62 -0.25,1.84 -2.06,1.84 1.08,2.47 3.45,3.24 5.09,3.24 3.49,0 5.3,-2.71 5.3,-5.53 0,-3.04 -2.16,-5.44 -3.28,-6.69 l -8.39,-8.3 c -0.36,-0.31 -0.36,-0.39 -0.36,-1.36 h 14.36 z"
           id="path12527"
           inkscape:connector-curvature="0"
           style="fill:#000000;stroke-width:0" /></g>    </g>
    <g
       id="g12705"
       transform="matrix(0.5,0,0,0.5,103.5387,402.17669)">
      <g
         word-spacing="normal"
         letter-spacing="normal"
         font-size-adjust="none"
         font-stretch="normal"
         font-weight="normal"
         font-variant="normal"
         font-style="normal"
         stroke-miterlimit="10.433"
         xml:space="preserve"
         transform="matrix(1.0629921,0,0,-1.0629921,-186.02362,789.27165)"
         id="g12707"
         style="font-style:normal;font-variant:normal;font-weight:normal;font-stretch:normal;letter-spacing:normal;word-spacing:normal;text-anchor:start;fill:none;stroke:#000000;stroke-width:2;stroke-linecap:butt;stroke-linejoin:miter;stroke-miterlimit:10.43299961;stroke-opacity:1;stroke-dasharray:none;stroke-dashoffset:0"><path
           id="path12709"
           d="m 482.47,436.59 0.04,0.15 0.04,0.14 0.03,0.14 0.04,0.13 0.03,0.12 0.04,0.12 0.04,0.11 0.04,0.11 0.04,0.1 0.04,0.09 0.05,0.09 0.05,0.08 0.06,0.08 0.06,0.07 0.07,0.07 0.08,0.06 0.08,0.06 0.09,0.05 0.09,0.05 0.11,0.04 0.11,0.04 0.13,0.04 0.13,0.03 0.07,0.01 0.08,0.02 0.07,0.01 0.08,0.01 0.08,0.01 0.09,0.01 0.09,0.01 0.09,0.01 0.09,0.01 0.1,0 0.1,0.01 0.11,0 0.1,0.01 0.11,0 0.12,0 0.12,0 0.12,0 0.13,0 c 0.79,0 1.34,0 1.34,0.96 0,0.43 -0.3,0.59 -0.69,0.59 -1.25,0 -4.28,-0.16 -5.53,-0.16 -1.64,0 -5.69,0.16 -7.33,0.16 -0.45,0 -1.04,0 -1.04,-1 0,-0.55 0.4,-0.55 1.7,-0.55 1.14,0 1.64,0 2.88,-0.09 1.2,-0.16 1.54,-0.31 1.54,-1 0,-0.3 -0.09,-0.66 -0.19,-1.05 l -5.73,-22.87 c -1.2,-4.83 -4.58,-7.47 -7.17,-7.47 -1.3,0 -3.94,0.5 -4.74,3.09 0.14,-0.04 0.5,-0.04 0.6,-0.04 1.94,0 3.23,1.68 3.23,3.18 0,1.6 -1.34,2.08 -2.19,2.08 -0.89,0 -3.34,-0.59 -3.34,-3.98 0,-3.08 2.64,-5.42 6.58,-5.42 4.59,0 9.76,3.28 11.01,8.21 z"
           inkscape:connector-curvature="0"
           style="fill:#000000;stroke-width:0" /><path
           id="path12711"
           d="m 492.64,410.4 0.25,0 0.25,-0.02 0.24,-0.03 0.24,-0.04 0.23,-0.05 0.23,-0.06 0.22,-0.07 0.21,-0.08 0.21,-0.1 0.2,-0.1 0.2,-0.12 0.19,-0.12 0.18,-0.14 0.18,-0.15 0.16,-0.16 0.16,-0.17 0.15,-0.18 0.15,-0.19 0.13,-0.2 0.13,-0.22 0.11,-0.22 0.11,-0.24 0.1,-0.24 0.09,-0.26 0.08,-0.27 0.07,-0.28 0.06,-0.29 0.05,-0.3 0.04,-0.31 0.03,-0.32 0.01,-0.33 0.01,-0.35 c 0,-4.33 -2.52,-5.61 -4.53,-5.61 -1.39,0 -4.47,0.38 -5.92,2.44 1.62,0.06 2.01,1.22 2.01,1.95 0,1.11 -0.84,1.91 -1.92,1.91 -0.97,0 -1.95,-0.59 -1.95,-2.02 0,-3.28 3.62,-5.4 7.84,-5.4 4.84,0 8.19,3.25 8.19,6.73 0,2.72 -2.22,5.44 -6.07,6.24 3.66,1.33 4.99,3.93 4.99,6.06 0,2.75 -3.17,4.81 -7.03,4.81 -3.88,0 -6.83,-1.89 -6.83,-4.67 0,-1.19 0.77,-1.84 1.81,-1.84 1.08,0 1.77,0.79 1.77,1.76 0,1.02 -0.69,1.75 -1.77,1.81 1.22,1.55 3.61,1.93 4.91,1.93 1.56,0 3.76,-0.77 3.76,-3.8 0,-1.47 -0.48,-3.06 -1.39,-4.14 -1.15,-1.33 -2.12,-1.41 -3.87,-1.5 -0.88,-0.08 -0.94,-0.08 -1.11,-0.11 -0.08,0 -0.36,-0.06 -0.36,-0.45 0,-0.49 0.31,-0.49 0.91,-0.49 z"
           inkscape:connector-curvature="0"
           style="fill:#000000;stroke-width:0" /></g>    </g>
    <g
       id="g13829"
       transform="matrix(0.5,0,0,0.5,407.36267,610.0821)">
      <g
         id="g13831"
         transform="matrix(1.0629921,0,0,-1.0629921,-186.02362,789.27165)"
         xml:space="preserve"
         stroke-miterlimit="10.433"
         font-style="normal"
         font-variant="normal"
         font-weight="normal"
         font-stretch="normal"
         font-size-adjust="none"
         letter-spacing="normal"
         word-spacing="normal"
         style="font-style:normal;font-variant:normal;font-weight:normal;font-stretch:normal;letter-spacing:normal;word-spacing:normal;text-anchor:start;fill:none;stroke:#000000;stroke-width:2;stroke-linecap:butt;stroke-linejoin:miter;stroke-miterlimit:10.43299961;stroke-opacity:1;stroke-dasharray:none;stroke-dashoffset:0"><path
           d="m 479.68,426.68 -4.18,9.91 c -0.15,0.41 -0.25,0.59 -0.25,0.64 0,0.31 0.85,1.25 2.94,1.45 0.5,0.05 1,0.1 1,0.96 0,0.59 -0.61,0.59 -0.75,0.59 -2.05,0 -4.19,-0.16 -6.28,-0.16 -1.25,0 -4.33,0.16 -5.58,0.16 -0.29,0 -0.9,0 -0.9,-1 0,-0.55 0.5,-0.55 1.15,-0.55 2.99,0 3.28,-0.5 3.74,-1.59 l 5.87,-13.91 -10.51,-11.31 -0.64,-0.55 c -2.44,-2.64 -4.79,-3.43 -7.33,-3.57 -0.64,-0.05 -1.1,-0.05 -1.1,-1 0,-0.05 0,-0.55 0.66,-0.55 1.48,0 3.12,0.16 4.67,0.16 1.85,0 3.8,-0.16 5.58,-0.16 0.31,0 0.91,0 0.91,1 0,0.5 -0.5,0.55 -0.6,0.55 -0.45,0.04 -2,0.14 -2,1.54 0,0.8 0.75,1.6 1.35,2.24 l 5.07,5.39 4.49,4.87 5.03,-11.9 c 0.2,-0.55 0.25,-0.6 0.25,-0.71 0,-0.39 -0.94,-1.23 -2.89,-1.43 -0.55,-0.05 -0.99,-0.11 -0.99,-0.96 0,-0.59 0.55,-0.59 0.74,-0.59 1.41,0 4.89,0.16 6.28,0.16 1.25,0 4.28,-0.16 5.53,-0.16 0.35,0 0.95,0 0.95,0.95 0,0.6 -0.5,0.6 -0.9,0.6 -3.33,0.04 -3.44,0.2 -4.28,2.18 -1.94,4.64 -5.28,12.41 -6.42,15.39 3.39,3.5 8.6,9.43 10.2,10.82 1.45,1.2 3.34,2.39 6.33,2.54 0.65,0.05 1.09,0.05 1.09,1 0,0.05 0,0.55 -0.64,0.55 -1.5,0 -3.14,-0.16 -4.69,-0.16 -1.84,0 -3.73,0.16 -5.53,0.16 -0.3,0 -0.94,0 -0.94,-1 0,-0.34 0.25,-0.5 0.6,-0.55 0.45,-0.04 2,-0.15 2,-1.54 0,-0.71 -0.55,-1.35 -0.96,-1.8 z"
           id="path13833"
           inkscape:connector-curvature="0"
           style="fill:#000000;stroke-width:0" /><path
           d="m 513.74,419.84 0.01,0.05 0.01,0.04 0.01,0.05 0.01,0.04 0.01,0.04 0.01,0.04 0.01,0.04 0.01,0.04 0.02,0.07 0.02,0.07 0.02,0.07 0.02,0.05 0.02,0.06 0.02,0.05 0.02,0.05 0.02,0.05 0.02,0.04 0.03,0.03 0.02,0.04 0.03,0.03 0.03,0.03 0.03,0.03 0.03,0.02 0.03,0.02 0.04,0.02 0.03,0.02 0.04,0.01 0.05,0.02 0.04,0.01 0.05,0.01 0.05,0.01 0.06,0.01 0.06,0.01 0.06,0 0.07,0.01 0.07,0.01 c 0.17,0.03 1.39,0.03 2.09,0.03 2.12,0 3.03,0 3.89,-0.28 1.58,-0.49 1.64,-1.5 1.64,-2.75 0,-0.55 0,-1 -0.23,-2.82 l -0.08,-0.39 c 0,-0.34 0.25,-0.51 0.59,-0.51 0.53,0 0.6,0.31 0.68,0.86 l 0.93,6.65 c 0,0.5 -0.42,0.5 -1.05,0.5 h -21.43 c -0.86,0 -0.94,0 -1.17,-0.73 l -2.21,-6.17 c -0.03,-0.14 -0.17,-0.46 -0.17,-0.63 0,-0.14 0.06,-0.48 0.59,-0.48 0.46,0 0.52,0.17 0.74,0.83 2.01,5.57 3.17,5.92 8.47,5.92 h 1.45 c 1.05,0 1.08,-0.03 1.08,-0.35 0,-0.03 0,-0.2 -0.14,-0.73 l -4.6,-18.33 c -0.31,-1.28 -0.42,-1.64 -4.07,-1.64 -1.25,0 -1.57,0 -1.57,-0.76 0,-0.1 0.07,-0.49 0.6,-0.49 0.97,0 2.01,0.11 2.98,0.11 0.99,0 2.03,0.03 3,0.03 0.99,0 2.17,0 3.14,-0.03 0.94,-0.05 1.99,-0.11 2.93,-0.11 0.28,0 0.81,0 0.81,0.77 0,0.48 -0.36,0.48 -1.44,0.48 -0.66,0 -1.36,0.05 -2.02,0.08 -1.18,0.09 -1.25,0.23 -1.25,0.66 0,0.25 0,0.31 0.13,0.79 z"
           id="path13835"
           inkscape:connector-curvature="0"
           style="fill:#000000;stroke-width:0" /><path
           d="m 544.16,404.48 v 1.25 h -3.88 v 15.55 c 0,0.72 0,0.97 -0.76,0.97 -0.43,0 -0.57,0 -0.91,-0.49 l -11.53,-16.03 v -1.25 h 10.25 l 0.23,1.25 h -9.2 l 9.2,12.75 v -12.75 l -0.23,-1.25 v -2.86 c 0,-1.19 0,-1.61 -2.83,-1.61 h -0.94 v -1.25 c 1.74,0.06 3.97,0.14 5.22,0.14 1.3,0 3.52,-0.08 5.27,-0.14 v 1.25 h -0.94 c -2.83,0 -2.83,0.42 -2.83,1.61 v 2.86 z"
           id="path13837"
           inkscape:connector-curvature="0"
           style="fill:#000000;stroke-width:0" /></g>    </g>
    <g
       id="g14089"
       transform="matrix(0.5,0,0,0.5,293.70471,822.21413)">
      <g
         word-spacing="normal"
         letter-spacing="normal"
         font-size-adjust="none"
         font-stretch="normal"
         font-weight="normal"
         font-variant="normal"
         font-style="normal"
         stroke-miterlimit="10.433"
         xml:space="preserve"
         transform="matrix(1.0629921,0,0,-1.0629921,-186.02362,789.27165)"
         id="g14091"
         style="font-style:normal;font-variant:normal;font-weight:normal;font-stretch:normal;letter-spacing:normal;word-spacing:normal;text-anchor:start;fill:none;stroke:#000000;stroke-width:2;stroke-linecap:butt;stroke-linejoin:miter;stroke-miterlimit:10.43299961;stroke-opacity:1;stroke-dasharray:none;stroke-dashoffset:0"><path
           id="path14093"
           d="m 479.68,426.68 -4.18,9.91 c -0.15,0.41 -0.25,0.59 -0.25,0.64 0,0.31 0.85,1.25 2.94,1.45 0.5,0.05 1,0.1 1,0.96 0,0.59 -0.61,0.59 -0.75,0.59 -2.05,0 -4.19,-0.16 -6.28,-0.16 -1.25,0 -4.33,0.16 -5.58,0.16 -0.29,0 -0.9,0 -0.9,-1 0,-0.55 0.5,-0.55 1.15,-0.55 2.99,0 3.28,-0.5 3.74,-1.59 l 5.87,-13.91 -10.51,-11.31 -0.64,-0.55 c -2.44,-2.64 -4.79,-3.43 -7.33,-3.57 -0.64,-0.05 -1.1,-0.05 -1.1,-1 0,-0.05 0,-0.55 0.66,-0.55 1.48,0 3.12,0.16 4.67,0.16 1.85,0 3.8,-0.16 5.58,-0.16 0.31,0 0.91,0 0.91,1 0,0.5 -0.5,0.55 -0.6,0.55 -0.45,0.04 -2,0.14 -2,1.54 0,0.8 0.75,1.6 1.35,2.24 l 5.07,5.39 4.49,4.87 5.03,-11.9 c 0.2,-0.55 0.25,-0.6 0.25,-0.71 0,-0.39 -0.94,-1.23 -2.89,-1.43 -0.55,-0.05 -0.99,-0.11 -0.99,-0.96 0,-0.59 0.55,-0.59 0.74,-0.59 1.41,0 4.89,0.16 6.28,0.16 1.25,0 4.28,-0.16 5.53,-0.16 0.35,0 0.95,0 0.95,0.95 0,0.6 -0.5,0.6 -0.9,0.6 -3.33,0.04 -3.44,0.2 -4.28,2.18 -1.94,4.64 -5.28,12.41 -6.42,15.39 3.39,3.5 8.6,9.43 10.2,10.82 1.45,1.2 3.34,2.39 6.33,2.54 0.65,0.05 1.09,0.05 1.09,1 0,0.05 0,0.55 -0.64,0.55 -1.5,0 -3.14,-0.16 -4.69,-0.16 -1.84,0 -3.73,0.16 -5.53,0.16 -0.3,0 -0.94,0 -0.94,-1 0,-0.34 0.25,-0.5 0.6,-0.55 0.45,-0.04 2,-0.15 2,-1.54 0,-0.71 -0.55,-1.35 -0.96,-1.8 z"
           inkscape:connector-curvature="0"
           style="fill:#000000;stroke-width:0" /><path
           id="path14095"
           d="m 513.74,419.84 0.01,0.05 0.01,0.04 0.01,0.05 0.01,0.04 0.01,0.04 0.01,0.04 0.01,0.04 0.01,0.04 0.02,0.07 0.02,0.07 0.02,0.07 0.02,0.05 0.02,0.06 0.02,0.05 0.02,0.05 0.02,0.05 0.02,0.04 0.03,0.03 0.02,0.04 0.03,0.03 0.03,0.03 0.03,0.03 0.03,0.02 0.03,0.02 0.04,0.02 0.03,0.02 0.04,0.01 0.05,0.02 0.04,0.01 0.05,0.01 0.05,0.01 0.06,0.01 0.06,0.01 0.06,0 0.07,0.01 0.07,0.01 c 0.17,0.03 1.39,0.03 2.09,0.03 2.12,0 3.03,0 3.89,-0.28 1.58,-0.49 1.64,-1.5 1.64,-2.75 0,-0.55 0,-1 -0.23,-2.82 l -0.08,-0.39 c 0,-0.34 0.25,-0.51 0.59,-0.51 0.53,0 0.6,0.31 0.68,0.86 l 0.93,6.65 c 0,0.5 -0.42,0.5 -1.05,0.5 h -21.43 c -0.86,0 -0.94,0 -1.17,-0.73 l -2.21,-6.17 c -0.03,-0.14 -0.17,-0.46 -0.17,-0.63 0,-0.14 0.06,-0.48 0.59,-0.48 0.46,0 0.52,0.17 0.74,0.83 2.01,5.57 3.17,5.92 8.47,5.92 h 1.45 c 1.05,0 1.08,-0.03 1.08,-0.35 0,-0.03 0,-0.2 -0.14,-0.73 l -4.6,-18.33 c -0.31,-1.28 -0.42,-1.64 -4.07,-1.64 -1.25,0 -1.57,0 -1.57,-0.76 0,-0.1 0.07,-0.49 0.6,-0.49 0.97,0 2.01,0.11 2.98,0.11 0.99,0 2.03,0.03 3,0.03 0.99,0 2.17,0 3.14,-0.03 0.94,-0.05 1.99,-0.11 2.93,-0.11 0.28,0 0.81,0 0.81,0.77 0,0.48 -0.36,0.48 -1.44,0.48 -0.66,0 -1.36,0.05 -2.02,0.08 -1.18,0.09 -1.25,0.23 -1.25,0.66 0,0.25 0,0.31 0.13,0.79 z"
           inkscape:connector-curvature="0"
           style="fill:#000000;stroke-width:0" /><path
           id="path14097"
           d="m 537.39,420.92 0,0.04 0,0.04 0,0.05 0,0.04 0,0.03 0,0.04 0,0.04 0,0.03 -0.01,0.04 0,0.03 0,0.03 0,0.03 0,0.03 -0.01,0.03 0,0.03 0,0.02 -0.01,0.03 0,0.02 -0.01,0.03 0,0.02 -0.02,0.04 -0.01,0.04 -0.02,0.03 -0.02,0.03 -0.02,0.03 -0.02,0.03 -0.03,0.02 -0.03,0.02 -0.04,0.02 -0.03,0.01 -0.04,0.01 -0.05,0.02 -0.02,0 -0.03,0 -0.02,0.01 -0.03,0 -0.02,0.01 -0.03,0 -0.03,0 -0.03,0 -0.04,0 -0.03,0.01 -0.03,0 -0.04,0 -0.04,0 -0.03,0 -0.04,0 -0.04,0 -0.04,0 -0.05,0 -0.04,0 -0.05,0 c -2.23,-2.2 -5.39,-2.23 -6.82,-2.23 v -1.25 c 0.84,0 3.14,0 5.04,0.97 v -17.77 c 0,-1.16 0,-1.61 -3.48,-1.61 h -1.31 v -1.25 c 0.62,0.03 4.9,0.14 6.2,0.14 1.08,0 5.47,-0.11 6.23,-0.14 v 1.25 h -1.32 c -3.49,0 -3.49,0.45 -3.49,1.61 z"
           inkscape:connector-curvature="0"
           style="fill:#000000;stroke-width:0" /></g>    </g>
    <g
       id="g14359"
       transform="matrix(0.5,0,0,0.5,260.66467,637.35621)">
      <g
         id="g14361"
         transform="matrix(1.0629921,0,0,-1.0629921,-186.02362,789.27165)"
         xml:space="preserve"
         stroke-miterlimit="10.433"
         font-style="normal"
         font-variant="normal"
         font-weight="normal"
         font-stretch="normal"
         font-size-adjust="none"
         letter-spacing="normal"
         word-spacing="normal"
         style="font-style:normal;font-variant:normal;font-weight:normal;font-stretch:normal;letter-spacing:normal;word-spacing:normal;text-anchor:start;fill:none;stroke:#000000;stroke-width:2;stroke-linecap:butt;stroke-linejoin:miter;stroke-miterlimit:10.43299961;stroke-opacity:1;stroke-dasharray:none;stroke-dashoffset:0"><path
           d="m 479.68,426.68 -4.18,9.91 c -0.15,0.41 -0.25,0.59 -0.25,0.64 0,0.31 0.85,1.25 2.94,1.45 0.5,0.05 1,0.1 1,0.96 0,0.59 -0.61,0.59 -0.75,0.59 -2.05,0 -4.19,-0.16 -6.28,-0.16 -1.25,0 -4.33,0.16 -5.58,0.16 -0.29,0 -0.9,0 -0.9,-1 0,-0.55 0.5,-0.55 1.15,-0.55 2.99,0 3.28,-0.5 3.74,-1.59 l 5.87,-13.91 -10.51,-11.31 -0.64,-0.55 c -2.44,-2.64 -4.79,-3.43 -7.33,-3.57 -0.64,-0.05 -1.1,-0.05 -1.1,-1 0,-0.05 0,-0.55 0.66,-0.55 1.48,0 3.12,0.16 4.67,0.16 1.85,0 3.8,-0.16 5.58,-0.16 0.31,0 0.91,0 0.91,1 0,0.5 -0.5,0.55 -0.6,0.55 -0.45,0.04 -2,0.14 -2,1.54 0,0.8 0.75,1.6 1.35,2.24 l 5.07,5.39 4.49,4.87 5.03,-11.9 c 0.2,-0.55 0.25,-0.6 0.25,-0.71 0,-0.39 -0.94,-1.23 -2.89,-1.43 -0.55,-0.05 -0.99,-0.11 -0.99,-0.96 0,-0.59 0.55,-0.59 0.74,-0.59 1.41,0 4.89,0.16 6.28,0.16 1.25,0 4.28,-0.16 5.53,-0.16 0.35,0 0.95,0 0.95,0.95 0,0.6 -0.5,0.6 -0.9,0.6 -3.33,0.04 -3.44,0.2 -4.28,2.18 -1.94,4.64 -5.28,12.41 -6.42,15.39 3.39,3.5 8.6,9.43 10.2,10.82 1.45,1.2 3.34,2.39 6.33,2.54 0.65,0.05 1.09,0.05 1.09,1 0,0.05 0,0.55 -0.64,0.55 -1.5,0 -3.14,-0.16 -4.69,-0.16 -1.84,0 -3.73,0.16 -5.53,0.16 -0.3,0 -0.94,0 -0.94,-1 0,-0.34 0.25,-0.5 0.6,-0.55 0.45,-0.04 2,-0.15 2,-1.54 0,-0.71 -0.55,-1.35 -0.96,-1.8 z"
           id="path14363"
           inkscape:connector-curvature="0"
           style="fill:#000000;stroke-width:0" /><path
           d="m 513.74,419.84 0.01,0.05 0.01,0.04 0.01,0.05 0.01,0.04 0.01,0.04 0.01,0.04 0.01,0.04 0.01,0.04 0.02,0.07 0.02,0.07 0.02,0.07 0.02,0.05 0.02,0.06 0.02,0.05 0.02,0.05 0.02,0.05 0.02,0.04 0.03,0.03 0.02,0.04 0.03,0.03 0.03,0.03 0.03,0.03 0.03,0.02 0.03,0.02 0.04,0.02 0.03,0.02 0.04,0.01 0.05,0.02 0.04,0.01 0.05,0.01 0.05,0.01 0.06,0.01 0.06,0.01 0.06,0 0.07,0.01 0.07,0.01 c 0.17,0.03 1.39,0.03 2.09,0.03 2.12,0 3.03,0 3.89,-0.28 1.58,-0.49 1.64,-1.5 1.64,-2.75 0,-0.55 0,-1 -0.23,-2.82 l -0.08,-0.39 c 0,-0.34 0.25,-0.51 0.59,-0.51 0.53,0 0.6,0.31 0.68,0.86 l 0.93,6.65 c 0,0.5 -0.42,0.5 -1.05,0.5 h -21.43 c -0.86,0 -0.94,0 -1.17,-0.73 l -2.21,-6.17 c -0.03,-0.14 -0.17,-0.46 -0.17,-0.63 0,-0.14 0.06,-0.48 0.59,-0.48 0.46,0 0.52,0.17 0.74,0.83 2.01,5.57 3.17,5.92 8.47,5.92 h 1.45 c 1.05,0 1.08,-0.03 1.08,-0.35 0,-0.03 0,-0.2 -0.14,-0.73 l -4.6,-18.33 c -0.31,-1.28 -0.42,-1.64 -4.07,-1.64 -1.25,0 -1.57,0 -1.57,-0.76 0,-0.1 0.07,-0.49 0.6,-0.49 0.97,0 2.01,0.11 2.98,0.11 0.99,0 2.03,0.03 3,0.03 0.99,0 2.17,0 3.14,-0.03 0.94,-0.05 1.99,-0.11 2.93,-0.11 0.28,0 0.81,0 0.81,0.77 0,0.48 -0.36,0.48 -1.44,0.48 -0.66,0 -1.36,0.05 -2.02,0.08 -1.18,0.09 -1.25,0.23 -1.25,0.66 0,0.25 0,0.31 0.13,0.79 z"
           id="path14365"
           inkscape:connector-curvature="0"
           style="fill:#000000;stroke-width:0" /><path
           d="m 543.31,405.11 h -1.19 c -0.09,-0.77 -0.45,-2.83 -0.9,-3.18 -0.27,-0.2 -2.95,-0.2 -3.44,-0.2 h -6.42 c 3.66,3.23 4.87,4.2 6.97,5.84 2.58,2.07 4.98,4.22 4.98,7.54 0,4.21 -3.69,6.79 -8.15,6.79 -4.32,0 -7.25,-3.03 -7.25,-6.23 0,-1.78 1.5,-1.96 1.86,-1.96 0.82,0 1.84,0.6 1.84,1.85 0,0.62 -0.25,1.84 -2.06,1.84 1.07,2.47 3.45,3.24 5.09,3.24 3.48,0 5.3,-2.71 5.3,-5.53 0,-3.04 -2.16,-5.44 -3.28,-6.69 l -8.39,-8.3 c -0.36,-0.31 -0.36,-0.39 -0.36,-1.36 h 14.36 z"
           id="path14367"
           inkscape:connector-curvature="0"
           style="fill:#000000;stroke-width:0" /></g>    </g>
    <g
       id="g14639"
       transform="matrix(0.5,0,0,0.5,121.34599,455.71478)">
      <g
         word-spacing="normal"
         letter-spacing="normal"
         font-size-adjust="none"
         font-stretch="normal"
         font-weight="normal"
         font-variant="normal"
         font-style="normal"
         stroke-miterlimit="10.433"
         xml:space="preserve"
         transform="matrix(1.0629921,0,0,-1.0629921,-186.02362,789.27165)"
         id="g14641"
         style="font-style:normal;font-variant:normal;font-weight:normal;font-stretch:normal;letter-spacing:normal;word-spacing:normal;text-anchor:start;fill:none;stroke:#000000;stroke-width:2;stroke-linecap:butt;stroke-linejoin:miter;stroke-miterlimit:10.43299961;stroke-opacity:1;stroke-dasharray:none;stroke-dashoffset:0"><path
           id="path14643"
           d="m 479.68,426.68 -4.18,9.91 c -0.15,0.41 -0.25,0.59 -0.25,0.64 0,0.31 0.85,1.25 2.94,1.45 0.5,0.05 1,0.1 1,0.96 0,0.59 -0.61,0.59 -0.75,0.59 -2.05,0 -4.19,-0.16 -6.28,-0.16 -1.25,0 -4.33,0.16 -5.58,0.16 -0.29,0 -0.9,0 -0.9,-1 0,-0.55 0.5,-0.55 1.15,-0.55 2.99,0 3.28,-0.5 3.74,-1.59 l 5.87,-13.91 -10.51,-11.31 -0.64,-0.55 c -2.44,-2.64 -4.79,-3.43 -7.33,-3.57 -0.64,-0.05 -1.1,-0.05 -1.1,-1 0,-0.05 0,-0.55 0.66,-0.55 1.48,0 3.12,0.16 4.67,0.16 1.85,0 3.8,-0.16 5.58,-0.16 0.31,0 0.91,0 0.91,1 0,0.5 -0.5,0.55 -0.6,0.55 -0.45,0.04 -2,0.14 -2,1.54 0,0.8 0.75,1.6 1.35,2.24 l 5.07,5.39 4.49,4.87 5.03,-11.9 c 0.2,-0.55 0.25,-0.6 0.25,-0.71 0,-0.39 -0.94,-1.23 -2.89,-1.43 -0.55,-0.05 -0.99,-0.11 -0.99,-0.96 0,-0.59 0.55,-0.59 0.74,-0.59 1.41,0 4.89,0.16 6.28,0.16 1.25,0 4.28,-0.16 5.53,-0.16 0.35,0 0.95,0 0.95,0.95 0,0.6 -0.5,0.6 -0.9,0.6 -3.33,0.04 -3.44,0.2 -4.28,2.18 -1.94,4.64 -5.28,12.41 -6.42,15.39 3.39,3.5 8.6,9.43 10.2,10.82 1.45,1.2 3.34,2.39 6.33,2.54 0.65,0.05 1.09,0.05 1.09,1 0,0.05 0,0.55 -0.64,0.55 -1.5,0 -3.14,-0.16 -4.69,-0.16 -1.84,0 -3.73,0.16 -5.53,0.16 -0.3,0 -0.94,0 -0.94,-1 0,-0.34 0.25,-0.5 0.6,-0.55 0.45,-0.04 2,-0.15 2,-1.54 0,-0.71 -0.55,-1.35 -0.96,-1.8 z"
           inkscape:connector-curvature="0"
           style="fill:#000000;stroke-width:0" /><path
           id="path14645"
           d="m 513.74,419.84 0.01,0.05 0.01,0.04 0.01,0.05 0.01,0.04 0.01,0.04 0.01,0.04 0.01,0.04 0.01,0.04 0.02,0.07 0.02,0.07 0.02,0.07 0.02,0.05 0.02,0.06 0.02,0.05 0.02,0.05 0.02,0.05 0.02,0.04 0.03,0.03 0.02,0.04 0.03,0.03 0.03,0.03 0.03,0.03 0.03,0.02 0.03,0.02 0.04,0.02 0.03,0.02 0.04,0.01 0.05,0.02 0.04,0.01 0.05,0.01 0.05,0.01 0.06,0.01 0.06,0.01 0.06,0 0.07,0.01 0.07,0.01 c 0.17,0.03 1.39,0.03 2.09,0.03 2.12,0 3.03,0 3.89,-0.28 1.58,-0.49 1.64,-1.5 1.64,-2.75 0,-0.55 0,-1 -0.23,-2.82 l -0.08,-0.39 c 0,-0.34 0.25,-0.51 0.59,-0.51 0.53,0 0.6,0.31 0.68,0.86 l 0.93,6.65 c 0,0.5 -0.42,0.5 -1.05,0.5 h -21.43 c -0.86,0 -0.94,0 -1.17,-0.73 l -2.21,-6.17 c -0.03,-0.14 -0.17,-0.46 -0.17,-0.63 0,-0.14 0.06,-0.48 0.59,-0.48 0.46,0 0.52,0.17 0.74,0.83 2.01,5.57 3.17,5.92 8.47,5.92 h 1.45 c 1.05,0 1.08,-0.03 1.08,-0.35 0,-0.03 0,-0.2 -0.14,-0.73 l -4.6,-18.33 c -0.31,-1.28 -0.42,-1.64 -4.07,-1.64 -1.25,0 -1.57,0 -1.57,-0.76 0,-0.1 0.07,-0.49 0.6,-0.49 0.97,0 2.01,0.11 2.98,0.11 0.99,0 2.03,0.03 3,0.03 0.99,0 2.17,0 3.14,-0.03 0.94,-0.05 1.99,-0.11 2.93,-0.11 0.28,0 0.81,0 0.81,0.77 0,0.48 -0.36,0.48 -1.44,0.48 -0.66,0 -1.36,0.05 -2.02,0.08 -1.18,0.09 -1.25,0.23 -1.25,0.66 0,0.25 0,0.31 0.13,0.79 z"
           inkscape:connector-curvature="0"
           style="fill:#000000;stroke-width:0" /><path
           id="path14647"
           d="m 535.23,410.4 0.26,0 0.24,-0.02 0.25,-0.03 0.24,-0.04 0.23,-0.05 0.22,-0.06 0.23,-0.07 0.21,-0.08 0.21,-0.1 0.2,-0.1 0.2,-0.12 0.19,-0.12 0.18,-0.14 0.17,-0.15 0.17,-0.16 0.16,-0.17 0.15,-0.18 0.14,-0.19 0.14,-0.2 0.12,-0.22 0.12,-0.22 0.11,-0.24 0.1,-0.24 0.09,-0.26 0.08,-0.27 0.07,-0.28 0.06,-0.29 0.05,-0.3 0.04,-0.31 0.02,-0.32 0.02,-0.33 0.01,-0.35 c 0,-4.33 -2.52,-5.61 -4.53,-5.61 -1.4,0 -4.47,0.38 -5.93,2.44 1.63,0.06 2.02,1.22 2.02,1.95 0,1.11 -0.85,1.91 -1.92,1.91 -0.97,0 -1.96,-0.59 -1.96,-2.02 0,-3.28 3.63,-5.4 7.85,-5.4 4.84,0 8.18,3.25 8.18,6.73 0,2.72 -2.21,5.44 -6.06,6.24 3.66,1.33 4.99,3.93 4.99,6.06 0,2.75 -3.17,4.81 -7.03,4.81 -3.88,0 -6.83,-1.89 -6.83,-4.67 0,-1.19 0.76,-1.84 1.81,-1.84 1.08,0 1.77,0.79 1.77,1.76 0,1.02 -0.69,1.75 -1.77,1.81 1.22,1.55 3.61,1.93 4.91,1.93 1.56,0 3.76,-0.77 3.76,-3.8 0,-1.47 -0.48,-3.06 -1.39,-4.14 -1.16,-1.33 -2.12,-1.41 -3.87,-1.5 -0.88,-0.08 -0.94,-0.08 -1.11,-0.11 -0.08,0 -0.36,-0.06 -0.36,-0.45 0,-0.49 0.31,-0.49 0.9,-0.49 z"
           inkscape:connector-curvature="0"
           style="fill:#000000;stroke-width:0" /></g>    </g>
    <g
       id="g14929"
       transform="matrix(0.5,0,0,0.5,9.6981571,371.6937)">
      <g
         id="g14931"
         transform="matrix(1.0629921,0,0,-1.0629921,-186.02362,789.27165)"
         xml:space="preserve"
         stroke-miterlimit="10.433"
         font-style="normal"
         font-variant="normal"
         font-weight="normal"
         font-stretch="normal"
         font-size-adjust="none"
         letter-spacing="normal"
         word-spacing="normal"
         style="font-style:normal;font-variant:normal;font-weight:normal;font-stretch:normal;letter-spacing:normal;word-spacing:normal;text-anchor:start;fill:none;stroke:#000000;stroke-width:2;stroke-linecap:butt;stroke-linejoin:miter;stroke-miterlimit:10.43299961;stroke-opacity:1;stroke-dasharray:none;stroke-dashoffset:0"><path
           d="m 479.68,426.68 -4.18,9.91 c -0.15,0.41 -0.25,0.59 -0.25,0.64 0,0.31 0.85,1.25 2.94,1.45 0.5,0.05 1,0.1 1,0.96 0,0.59 -0.61,0.59 -0.75,0.59 -2.05,0 -4.19,-0.16 -6.28,-0.16 -1.25,0 -4.33,0.16 -5.58,0.16 -0.29,0 -0.9,0 -0.9,-1 0,-0.55 0.5,-0.55 1.15,-0.55 2.99,0 3.28,-0.5 3.74,-1.59 l 5.87,-13.91 -10.51,-11.31 -0.64,-0.55 c -2.44,-2.64 -4.79,-3.43 -7.33,-3.57 -0.64,-0.05 -1.1,-0.05 -1.1,-1 0,-0.05 0,-0.55 0.66,-0.55 1.48,0 3.12,0.16 4.67,0.16 1.85,0 3.8,-0.16 5.58,-0.16 0.31,0 0.91,0 0.91,1 0,0.5 -0.5,0.55 -0.6,0.55 -0.45,0.04 -2,0.14 -2,1.54 0,0.8 0.75,1.6 1.35,2.24 l 5.07,5.39 4.49,4.87 5.03,-11.9 c 0.2,-0.55 0.25,-0.6 0.25,-0.71 0,-0.39 -0.94,-1.23 -2.89,-1.43 -0.55,-0.05 -0.99,-0.11 -0.99,-0.96 0,-0.59 0.55,-0.59 0.74,-0.59 1.41,0 4.89,0.16 6.28,0.16 1.25,0 4.28,-0.16 5.53,-0.16 0.35,0 0.95,0 0.95,0.95 0,0.6 -0.5,0.6 -0.9,0.6 -3.33,0.04 -3.44,0.2 -4.28,2.18 -1.94,4.64 -5.28,12.41 -6.42,15.39 3.39,3.5 8.6,9.43 10.2,10.82 1.45,1.2 3.34,2.39 6.33,2.54 0.65,0.05 1.09,0.05 1.09,1 0,0.05 0,0.55 -0.64,0.55 -1.5,0 -3.14,-0.16 -4.69,-0.16 -1.84,0 -3.73,0.16 -5.53,0.16 -0.3,0 -0.94,0 -0.94,-1 0,-0.34 0.25,-0.5 0.6,-0.55 0.45,-0.04 2,-0.15 2,-1.54 0,-0.71 -0.55,-1.35 -0.96,-1.8 z"
           id="path14933"
           inkscape:connector-curvature="0"
           style="fill:#000000;stroke-width:0" /><path
           d="m 517.6,419.87 0.03,0.11 0.02,0.11 0.03,0.1 0.03,0.09 0.02,0.09 0.03,0.09 0.03,0.08 0.03,0.07 0.03,0.07 0.03,0.06 0.03,0.07 0.04,0.05 0.04,0.05 0.05,0.05 0.05,0.05 0.05,0.04 0.06,0.03 0.06,0.04 0.07,0.03 0.07,0.03 0.08,0.02 0.09,0.02 0.1,0.02 0.05,0.01 0.05,0.01 0.05,0 0.06,0.01 0.06,0.01 0.06,0 0.06,0.01 0.07,0 0.06,0 0.07,0.01 0.07,0 0.08,0 0.08,0 0.08,0.01 0.08,0 0.08,0 0.09,0 0.09,0 c 0.41,0 0.89,0 0.89,0.73 0,0.38 -0.27,0.52 -0.52,0.52 -0.82,0 -2.92,-0.14 -3.76,-0.14 -0.74,0 -1.91,0.03 -2.69,0.03 -0.86,0.05 -1.87,0.11 -2.75,0.11 -0.23,0 -0.76,0 -0.76,-0.74 0,-0.51 0.31,-0.51 1.36,-0.51 0.81,0 0.93,0 1.81,-0.08 1.01,-0.09 1.12,-0.2 1.12,-0.62 0,-0.24 0,-0.32 -0.14,-0.8 l -4.01,-15.95 c -0.66,-2.63 -2.89,-4.82 -5.16,-4.82 -0.48,0 -2.69,0.11 -3.48,1.82 2.01,0 2.47,1.64 2.47,2.26 0,0.97 -0.83,1.5 -1.6,1.5 -0.94,0 -2.34,-0.76 -2.34,-2.72 0,-2.26 2.12,-3.84 5.06,-3.84 3.41,0 7.28,2.2 8.16,5.69 z"
           id="path14935"
           inkscape:connector-curvature="0"
           style="fill:#000000;stroke-width:0" /><path
           d="m 531.63,410.4 0.26,0 0.24,-0.02 0.25,-0.03 0.23,-0.04 0.24,-0.05 0.22,-0.06 0.22,-0.07 0.22,-0.08 0.21,-0.1 0.2,-0.1 0.2,-0.12 0.19,-0.12 0.18,-0.14 0.17,-0.15 0.17,-0.16 0.16,-0.17 0.15,-0.18 0.14,-0.19 0.14,-0.2 0.12,-0.22 0.12,-0.22 0.11,-0.24 0.1,-0.24 0.09,-0.26 0.08,-0.27 0.07,-0.28 0.06,-0.29 0.05,-0.3 0.03,-0.31 0.03,-0.32 0.02,-0.33 0,-0.35 c 0,-4.33 -2.51,-5.61 -4.53,-5.61 -1.39,0 -4.47,0.38 -5.92,2.44 1.63,0.06 2.02,1.22 2.02,1.95 0,1.11 -0.85,1.91 -1.92,1.91 -0.97,0 -1.96,-0.59 -1.96,-2.02 0,-3.28 3.63,-5.4 7.85,-5.4 4.84,0 8.18,3.25 8.18,6.73 0,2.72 -2.22,5.44 -6.06,6.24 3.66,1.33 4.99,3.93 4.99,6.06 0,2.75 -3.18,4.81 -7.04,4.81 -3.87,0 -6.82,-1.89 -6.82,-4.67 0,-1.19 0.76,-1.84 1.81,-1.84 1.08,0 1.76,0.79 1.76,1.76 0,1.02 -0.68,1.75 -1.76,1.81 1.22,1.55 3.61,1.93 4.9,1.93 1.57,0 3.77,-0.77 3.77,-3.8 0,-1.47 -0.48,-3.06 -1.39,-4.14 -1.16,-1.33 -2.13,-1.41 -3.88,-1.5 -0.87,-0.08 -0.93,-0.08 -1.1,-0.11 -0.08,0 -0.36,-0.06 -0.36,-0.45 0,-0.49 0.31,-0.49 0.9,-0.49 z"
           id="path14937"
           inkscape:connector-curvature="0"
           style="fill:#000000;stroke-width:0" /></g>    </g>
    <g
       id="g15229"
       transform="matrix(0.5,0,0,0.5,353.33715,460.02002)">
      <g
         word-spacing="normal"
         letter-spacing="normal"
         font-size-adjust="none"
         font-stretch="normal"
         font-weight="normal"
         font-variant="normal"
         font-style="normal"
         stroke-miterlimit="10.433"
         xml:space="preserve"
         transform="matrix(1.0629921,0,0,-1.0629921,-186.02362,789.27165)"
         id="g15231"
         style="font-style:normal;font-variant:normal;font-weight:normal;font-stretch:normal;letter-spacing:normal;word-spacing:normal;text-anchor:start;fill:none;stroke:#000000;stroke-width:2;stroke-linecap:butt;stroke-linejoin:miter;stroke-miterlimit:10.43299961;stroke-opacity:1;stroke-dasharray:none;stroke-dashoffset:0"><path
           id="path15233"
           d="m 479.68,426.68 -4.18,9.91 c -0.15,0.41 -0.25,0.59 -0.25,0.64 0,0.31 0.85,1.25 2.94,1.45 0.5,0.05 1,0.1 1,0.96 0,0.59 -0.61,0.59 -0.75,0.59 -2.05,0 -4.19,-0.16 -6.28,-0.16 -1.25,0 -4.33,0.16 -5.58,0.16 -0.29,0 -0.9,0 -0.9,-1 0,-0.55 0.5,-0.55 1.15,-0.55 2.99,0 3.28,-0.5 3.74,-1.59 l 5.87,-13.91 -10.51,-11.31 -0.64,-0.55 c -2.44,-2.64 -4.79,-3.43 -7.33,-3.57 -0.64,-0.05 -1.1,-0.05 -1.1,-1 0,-0.05 0,-0.55 0.66,-0.55 1.48,0 3.12,0.16 4.67,0.16 1.85,0 3.8,-0.16 5.58,-0.16 0.31,0 0.91,0 0.91,1 0,0.5 -0.5,0.55 -0.6,0.55 -0.45,0.04 -2,0.14 -2,1.54 0,0.8 0.75,1.6 1.35,2.24 l 5.07,5.39 4.49,4.87 5.03,-11.9 c 0.2,-0.55 0.25,-0.6 0.25,-0.71 0,-0.39 -0.94,-1.23 -2.89,-1.43 -0.55,-0.05 -0.99,-0.11 -0.99,-0.96 0,-0.59 0.55,-0.59 0.74,-0.59 1.41,0 4.89,0.16 6.28,0.16 1.25,0 4.28,-0.16 5.53,-0.16 0.35,0 0.95,0 0.95,0.95 0,0.6 -0.5,0.6 -0.9,0.6 -3.33,0.04 -3.44,0.2 -4.28,2.18 -1.94,4.64 -5.28,12.41 -6.42,15.39 3.39,3.5 8.6,9.43 10.2,10.82 1.45,1.2 3.34,2.39 6.33,2.54 0.65,0.05 1.09,0.05 1.09,1 0,0.05 0,0.55 -0.64,0.55 -1.5,0 -3.14,-0.16 -4.69,-0.16 -1.84,0 -3.73,0.16 -5.53,0.16 -0.3,0 -0.94,0 -0.94,-1 0,-0.34 0.25,-0.5 0.6,-0.55 0.45,-0.04 2,-0.15 2,-1.54 0,-0.71 -0.55,-1.35 -0.96,-1.8 z"
           inkscape:connector-curvature="0"
           style="fill:#000000;stroke-width:0" /><path
           id="path15235"
           d="m 517.6,419.87 0.03,0.11 0.02,0.11 0.03,0.1 0.03,0.09 0.02,0.09 0.03,0.09 0.03,0.08 0.03,0.07 0.03,0.07 0.03,0.06 0.03,0.07 0.04,0.05 0.04,0.05 0.05,0.05 0.05,0.05 0.05,0.04 0.06,0.03 0.06,0.04 0.07,0.03 0.07,0.03 0.08,0.02 0.09,0.02 0.1,0.02 0.05,0.01 0.05,0.01 0.05,0 0.06,0.01 0.06,0.01 0.06,0 0.06,0.01 0.07,0 0.06,0 0.07,0.01 0.07,0 0.08,0 0.08,0 0.08,0.01 0.08,0 0.08,0 0.09,0 0.09,0 c 0.41,0 0.89,0 0.89,0.73 0,0.38 -0.27,0.52 -0.52,0.52 -0.82,0 -2.92,-0.14 -3.76,-0.14 -0.74,0 -1.91,0.03 -2.69,0.03 -0.86,0.05 -1.87,0.11 -2.75,0.11 -0.23,0 -0.76,0 -0.76,-0.74 0,-0.51 0.31,-0.51 1.36,-0.51 0.81,0 0.93,0 1.81,-0.08 1.01,-0.09 1.12,-0.2 1.12,-0.62 0,-0.24 0,-0.32 -0.14,-0.8 l -4.01,-15.95 c -0.66,-2.63 -2.89,-4.82 -5.16,-4.82 -0.48,0 -2.69,0.11 -3.48,1.82 2.01,0 2.47,1.64 2.47,2.26 0,0.97 -0.83,1.5 -1.6,1.5 -0.94,0 -2.34,-0.76 -2.34,-2.72 0,-2.26 2.12,-3.84 5.06,-3.84 3.41,0 7.28,2.2 8.16,5.69 z"
           inkscape:connector-curvature="0"
           style="fill:#000000;stroke-width:0" /><path
           id="path15237"
           d="m 540.55,404.48 v 1.25 h -3.87 v 15.55 c 0,0.72 0,0.97 -0.77,0.97 -0.42,0 -0.56,0 -0.9,-0.49 l -11.53,-16.03 v -1.25 h 10.25 l 0.23,1.25 h -9.2 l 9.2,12.75 v -12.75 l -0.23,-1.25 v -2.86 c 0,-1.19 0,-1.61 -2.83,-1.61 h -0.94 v -1.25 c 1.74,0.06 3.97,0.14 5.22,0.14 1.3,0 3.52,-0.08 5.27,-0.14 v 1.25 h -0.94 c -2.83,0 -2.83,0.42 -2.83,1.61 v 2.86 z"
           inkscape:connector-curvature="0"
           style="fill:#000000;stroke-width:0" /></g>    </g>
    <g
       id="g15539"
       transform="matrix(0.5,0,0,0.5,332.84656,694.25436)">
      <g
         id="g15541"
         transform="matrix(1.0629921,0,0,-1.0629921,-186.02362,789.27165)"
         xml:space="preserve"
         stroke-miterlimit="10.433"
         font-style="normal"
         font-variant="normal"
         font-weight="normal"
         font-stretch="normal"
         font-size-adjust="none"
         letter-spacing="normal"
         word-spacing="normal"
         style="font-style:normal;font-variant:normal;font-weight:normal;font-stretch:normal;letter-spacing:normal;word-spacing:normal;text-anchor:start;fill:none;stroke:#000000;stroke-width:2;stroke-linecap:butt;stroke-linejoin:miter;stroke-miterlimit:10.43299961;stroke-opacity:1;stroke-dasharray:none;stroke-dashoffset:0"><path
           d="m 479.68,426.68 -4.18,9.91 c -0.15,0.41 -0.25,0.59 -0.25,0.64 0,0.31 0.85,1.25 2.94,1.45 0.5,0.05 1,0.1 1,0.96 0,0.59 -0.61,0.59 -0.75,0.59 -2.05,0 -4.19,-0.16 -6.28,-0.16 -1.25,0 -4.33,0.16 -5.58,0.16 -0.29,0 -0.9,0 -0.9,-1 0,-0.55 0.5,-0.55 1.15,-0.55 2.99,0 3.28,-0.5 3.74,-1.59 l 5.87,-13.91 -10.51,-11.31 -0.64,-0.55 c -2.44,-2.64 -4.79,-3.43 -7.33,-3.57 -0.64,-0.05 -1.1,-0.05 -1.1,-1 0,-0.05 0,-0.55 0.66,-0.55 1.48,0 3.12,0.16 4.67,0.16 1.85,0 3.8,-0.16 5.58,-0.16 0.31,0 0.91,0 0.91,1 0,0.5 -0.5,0.55 -0.6,0.55 -0.45,0.04 -2,0.14 -2,1.54 0,0.8 0.75,1.6 1.35,2.24 l 5.07,5.39 4.49,4.87 5.03,-11.9 c 0.2,-0.55 0.25,-0.6 0.25,-0.71 0,-0.39 -0.94,-1.23 -2.89,-1.43 -0.55,-0.05 -0.99,-0.11 -0.99,-0.96 0,-0.59 0.55,-0.59 0.74,-0.59 1.41,0 4.89,0.16 6.28,0.16 1.25,0 4.28,-0.16 5.53,-0.16 0.35,0 0.95,0 0.95,0.95 0,0.6 -0.5,0.6 -0.9,0.6 -3.33,0.04 -3.44,0.2 -4.28,2.18 -1.94,4.64 -5.28,12.41 -6.42,15.39 3.39,3.5 8.6,9.43 10.2,10.82 1.45,1.2 3.34,2.39 6.33,2.54 0.65,0.05 1.09,0.05 1.09,1 0,0.05 0,0.55 -0.64,0.55 -1.5,0 -3.14,-0.16 -4.69,-0.16 -1.84,0 -3.73,0.16 -5.53,0.16 -0.3,0 -0.94,0 -0.94,-1 0,-0.34 0.25,-0.5 0.6,-0.55 0.45,-0.04 2,-0.15 2,-1.54 0,-0.71 -0.55,-1.35 -0.96,-1.8 z"
           id="path15543"
           inkscape:connector-curvature="0"
           style="fill:#000000;stroke-width:0" /><path
           d="m 517.6,419.87 0.03,0.11 0.02,0.11 0.03,0.1 0.03,0.09 0.02,0.09 0.03,0.09 0.03,0.08 0.03,0.07 0.03,0.07 0.03,0.06 0.03,0.07 0.04,0.05 0.04,0.05 0.05,0.05 0.05,0.05 0.05,0.04 0.06,0.03 0.06,0.04 0.07,0.03 0.07,0.03 0.08,0.02 0.09,0.02 0.1,0.02 0.05,0.01 0.05,0.01 0.05,0 0.06,0.01 0.06,0.01 0.06,0 0.06,0.01 0.07,0 0.06,0 0.07,0.01 0.07,0 0.08,0 0.08,0 0.08,0.01 0.08,0 0.08,0 0.09,0 0.09,0 c 0.41,0 0.89,0 0.89,0.73 0,0.38 -0.27,0.52 -0.52,0.52 -0.82,0 -2.92,-0.14 -3.76,-0.14 -0.74,0 -1.91,0.03 -2.69,0.03 -0.86,0.05 -1.87,0.11 -2.75,0.11 -0.23,0 -0.76,0 -0.76,-0.74 0,-0.51 0.31,-0.51 1.36,-0.51 0.81,0 0.93,0 1.81,-0.08 1.01,-0.09 1.12,-0.2 1.12,-0.62 0,-0.24 0,-0.32 -0.14,-0.8 l -4.01,-15.95 c -0.66,-2.63 -2.89,-4.82 -5.16,-4.82 -0.48,0 -2.69,0.11 -3.48,1.82 2.01,0 2.47,1.64 2.47,2.26 0,0.97 -0.83,1.5 -1.6,1.5 -0.94,0 -2.34,-0.76 -2.34,-2.72 0,-2.26 2.12,-3.84 5.06,-3.84 3.41,0 7.28,2.2 8.16,5.69 z"
           id="path15545"
           inkscape:connector-curvature="0"
           style="fill:#000000;stroke-width:0" /><path
           d="m 533.79,420.92 0,0.04 0,0.04 0,0.05 0,0.04 0,0.03 0,0.04 0,0.04 -0.01,0.03 0,0.04 0,0.03 0,0.03 0,0.03 -0.01,0.03 0,0.03 0,0.03 -0.01,0.02 0,0.03 0,0.02 -0.01,0.03 -0.01,0.02 -0.01,0.04 -0.01,0.04 -0.02,0.03 -0.02,0.03 -0.02,0.03 -0.03,0.03 -0.02,0.02 -0.03,0.02 -0.04,0.02 -0.03,0.01 -0.04,0.01 -0.05,0.02 -0.02,0 -0.03,0 -0.02,0.01 -0.03,0 -0.03,0.01 -0.03,0 -0.02,0 -0.04,0 -0.03,0 -0.03,0.01 -0.03,0 -0.04,0 -0.04,0 -0.03,0 -0.04,0 -0.04,0 -0.05,0 -0.04,0 -0.04,0 -0.05,0 c -2.23,-2.2 -5.39,-2.23 -6.83,-2.23 v -1.25 c 0.85,0 3.14,0 5.05,0.97 v -17.77 c 0,-1.16 0,-1.61 -3.48,-1.61 h -1.32 v -1.25 c 0.63,0.03 4.91,0.14 6.21,0.14 1.08,0 5.47,-0.11 6.23,-0.14 v 1.25 h -1.33 c -3.48,0 -3.48,0.45 -3.48,1.61 z"
           id="path15547"
           inkscape:connector-curvature="0"
           style="fill:#000000;stroke-width:0" /></g>    </g>
    <g
       id="g15859"
       transform="matrix(0.5,0,0,0.5,132.20529,540.24559)">
      <g
         word-spacing="normal"
         letter-spacing="normal"
         font-size-adjust="none"
         font-stretch="normal"
         font-weight="normal"
         font-variant="normal"
         font-style="normal"
         stroke-miterlimit="10.433"
         xml:space="preserve"
         transform="matrix(1.0629921,0,0,-1.0629921,-186.02362,789.27165)"
         id="g15861"
         style="font-style:normal;font-variant:normal;font-weight:normal;font-stretch:normal;letter-spacing:normal;word-spacing:normal;text-anchor:start;fill:none;stroke:#000000;stroke-width:2;stroke-linecap:butt;stroke-linejoin:miter;stroke-miterlimit:10.43299961;stroke-opacity:1;stroke-dasharray:none;stroke-dashoffset:0"><path
           id="path15863"
           d="m 479.68,426.68 -4.18,9.91 c -0.15,0.41 -0.25,0.59 -0.25,0.64 0,0.31 0.85,1.25 2.94,1.45 0.5,0.05 1,0.1 1,0.96 0,0.59 -0.61,0.59 -0.75,0.59 -2.05,0 -4.19,-0.16 -6.28,-0.16 -1.25,0 -4.33,0.16 -5.58,0.16 -0.29,0 -0.9,0 -0.9,-1 0,-0.55 0.5,-0.55 1.15,-0.55 2.99,0 3.28,-0.5 3.74,-1.59 l 5.87,-13.91 -10.51,-11.31 -0.64,-0.55 c -2.44,-2.64 -4.79,-3.43 -7.33,-3.57 -0.64,-0.05 -1.1,-0.05 -1.1,-1 0,-0.05 0,-0.55 0.66,-0.55 1.48,0 3.12,0.16 4.67,0.16 1.85,0 3.8,-0.16 5.58,-0.16 0.31,0 0.91,0 0.91,1 0,0.5 -0.5,0.55 -0.6,0.55 -0.45,0.04 -2,0.14 -2,1.54 0,0.8 0.75,1.6 1.35,2.24 l 5.07,5.39 4.49,4.87 5.03,-11.9 c 0.2,-0.55 0.25,-0.6 0.25,-0.71 0,-0.39 -0.94,-1.23 -2.89,-1.43 -0.55,-0.05 -0.99,-0.11 -0.99,-0.96 0,-0.59 0.55,-0.59 0.74,-0.59 1.41,0 4.89,0.16 6.28,0.16 1.25,0 4.28,-0.16 5.53,-0.16 0.35,0 0.95,0 0.95,0.95 0,0.6 -0.5,0.6 -0.9,0.6 -3.33,0.04 -3.44,0.2 -4.28,2.18 -1.94,4.64 -5.28,12.41 -6.42,15.39 3.39,3.5 8.6,9.43 10.2,10.82 1.45,1.2 3.34,2.39 6.33,2.54 0.65,0.05 1.09,0.05 1.09,1 0,0.05 0,0.55 -0.64,0.55 -1.5,0 -3.14,-0.16 -4.69,-0.16 -1.84,0 -3.73,0.16 -5.53,0.16 -0.3,0 -0.94,0 -0.94,-1 0,-0.34 0.25,-0.5 0.6,-0.55 0.45,-0.04 2,-0.15 2,-1.54 0,-0.71 -0.55,-1.35 -0.96,-1.8 z"
           inkscape:connector-curvature="0"
           style="fill:#000000;stroke-width:0" /><path
           id="path15865"
           d="m 517.6,419.87 0.03,0.11 0.02,0.11 0.03,0.1 0.03,0.09 0.02,0.09 0.03,0.09 0.03,0.08 0.03,0.07 0.03,0.07 0.03,0.06 0.03,0.07 0.04,0.05 0.04,0.05 0.05,0.05 0.05,0.05 0.05,0.04 0.06,0.03 0.06,0.04 0.07,0.03 0.07,0.03 0.08,0.02 0.09,0.02 0.1,0.02 0.05,0.01 0.05,0.01 0.05,0 0.06,0.01 0.06,0.01 0.06,0 0.06,0.01 0.07,0 0.06,0 0.07,0.01 0.07,0 0.08,0 0.08,0 0.08,0.01 0.08,0 0.08,0 0.09,0 0.09,0 c 0.41,0 0.89,0 0.89,0.73 0,0.38 -0.27,0.52 -0.52,0.52 -0.82,0 -2.92,-0.14 -3.76,-0.14 -0.74,0 -1.91,0.03 -2.69,0.03 -0.86,0.05 -1.87,0.11 -2.75,0.11 -0.23,0 -0.76,0 -0.76,-0.74 0,-0.51 0.31,-0.51 1.36,-0.51 0.81,0 0.93,0 1.81,-0.08 1.01,-0.09 1.12,-0.2 1.12,-0.62 0,-0.24 0,-0.32 -0.14,-0.8 l -4.01,-15.95 c -0.66,-2.63 -2.89,-4.82 -5.16,-4.82 -0.48,0 -2.69,0.11 -3.48,1.82 2.01,0 2.47,1.64 2.47,2.26 0,0.97 -0.83,1.5 -1.6,1.5 -0.94,0 -2.34,-0.76 -2.34,-2.72 0,-2.26 2.12,-3.84 5.06,-3.84 3.41,0 7.28,2.2 8.16,5.69 z"
           inkscape:connector-curvature="0"
           style="fill:#000000;stroke-width:0" /><path
           id="path15867"
           d="m 539.71,405.11 h -1.19 c -0.09,-0.77 -0.45,-2.83 -0.9,-3.18 -0.27,-0.2 -2.96,-0.2 -3.44,-0.2 h -6.42 c 3.65,3.23 4.87,4.2 6.97,5.84 2.57,2.07 4.98,4.22 4.98,7.54 0,4.21 -3.69,6.79 -8.16,6.79 -4.31,0 -7.25,-3.03 -7.25,-6.23 0,-1.78 1.5,-1.96 1.86,-1.96 0.83,0 1.85,0.6 1.85,1.85 0,0.62 -0.25,1.84 -2.06,1.84 1.07,2.47 3.45,3.24 5.09,3.24 3.48,0 5.3,-2.71 5.3,-5.53 0,-3.04 -2.16,-5.44 -3.29,-6.69 l -8.39,-8.3 c -0.36,-0.31 -0.36,-0.39 -0.36,-1.36 h 14.36 z"
           inkscape:connector-curvature="0"
           style="fill:#000000;stroke-width:0" /></g>    </g>
    <path
       style="fill:none;stroke:#000000;stroke-width:1px;stroke-linecap:butt;stroke-linejoin:miter;stroke-opacity:1;marker-end:url(#Arrow1Mend)"
       d="m 545.95939,679.21703 c 0,0 -63.85243,44.30059 -79.56672,-42.84227"
       id="path16028"
       inkscape:connector-curvature="0"
       transform="translate(0,308.2677)"
       sodipodi:nodetypes="cc" />
    <path
       style="fill:none;stroke:#000000;stroke-width:1px;stroke-linecap:butt;stroke-linejoin:miter;stroke-opacity:1;marker-end:url(#Arrow1Mend)"
       d="m 470.93836,626.35989 c 81.83467,-45.56561 77.70274,-72.81508 40.41842,-124.3575"
       id="path16030"
       inkscape:connector-curvature="0"
       transform="translate(0,308.2677)"
       sodipodi:nodetypes="cc" />
    <path
       style="fill:none;stroke:#000000;stroke-width:1px;stroke-linecap:butt;stroke-linejoin:miter;stroke-opacity:1;marker-start:none;marker-end:url(#Arrow1Mend)"
       d="m 393.7063,743.61744 c 0,0 -151.77265,52.69869 -147.48693,-83.01559"
       id="path17538"
       inkscape:connector-curvature="0"
       sodipodi:nodetypes="cc" />
    <path
       style="fill:none;stroke:#000000;stroke-width:1px;stroke-linecap:butt;stroke-linejoin:miter;stroke-opacity:1;marker-start:none;marker-end:url(#Arrow1Mend)"
       d="m 253.79551,653.02571 c 0,0 26.91877,-13.52067 -10.22409,-59.23496"
       id="path17536"
       inkscape:connector-curvature="0"
       sodipodi:nodetypes="cc" />
    <path
       style="fill:none;stroke:#000000;stroke-width:1px;stroke-linecap:butt;stroke-linejoin:miter;stroke-opacity:1;marker-start:none;marker-end:url(#Arrow1Mend)"
       d="m 234.28571,585.09678 c -33.84011,-58.08378 6.84698,-97.0834 6.84698,-97.0834"
       id="path16032"
       inkscape:connector-curvature="0"
       sodipodi:nodetypes="cc" />
    <path
       style="fill:none;stroke:#000000;stroke-width:1px;stroke-linecap:butt;stroke-linejoin:miter;stroke-opacity:1;marker-end:url(#Arrow1Mend)"
       d="m 552.63922,412.86641 c 0,0 -49.23539,-102.17154 79.59135,-93.50581"
       id="path16034"
       inkscape:connector-curvature="0"
       transform="translate(0,308.2677)"
       sodipodi:nodetypes="cc" />
  </g>
</svg>
